<svg xmlns="http://www.w3.org/2000/svg" width="760" height="300" viewBox="0 0 760 300" role="img" aria-label="Radix tree reuses KV for a matched prompt prefix"><rect width="100%" height="100%" fill="#f7f5f0"></rect><style>@import url('https://fonts.googleapis.com/css2?family=Architects+Daughter&amp;display=swap'); text{font-family:Architects Daughter, 'Segoe Print', 'Comic Sans MS', cursive; font-weight:700;}</style><text x="40" y="40" fill="#1d1f22" font-family="Architects Daughter, 'Segoe Print', 'Comic Sans MS', cursive" font-size="24" font-weight="700">Radix match on insert</text><text x="40" y="78" fill="#3f444c" font-family="Architects Daughter, 'Segoe Print', 'Comic Sans MS', cursive" font-size="17" font-weight="700">insert: “You are a helpful assistant. What is the capital of France?”</text><g><path d="M40.28261707018851 154.23714387935956 C40.28261707018851 154.23714387935956, 40.28261707018851 154.23714387935956, 40.28261707018851 154.23714387935956 M40.28261707018851 154.23714387935956 C40.28261707018851 154.23714387935956, 40.28261707018851 154.23714387935956, 40.28261707018851 154.23714387935956 M48.577954166983794 153.37264726832407 C45.21859052059771 151.59899974160706, 41.074234604922545 148.62762950764477, 41.66274657034962 146.31363247177882 M49.290544933908265 153.656452111745 C47.20634275253477 151.7203372514336, 43.91252315122887 149.0322042952873, 40.90258947972727 146.24980328770056 M58.77433281145676 155.01739579924174 C55.73909879752386 147.94769642739666, 49.545282005139455 145.5516660220306, 42.19261522350206 137.41670436261506 M59.41515625288168 152.94727707812618 C55.363424106115325 150.02977099721846, 51.17692004925531 146.88989351268555, 41.472150290270925 138.86631668203023 M67.4049879667034 152.6661281049489 C60.89687385285452 149.53847649075792, 57.41454386876005 143.96504060592923, 38.08099004054286 132.1120178514586 M68.19972374041797 155.19497578635486 C59.499054510089024 146.80469062655112, 52.694387915082096 140.3652105192409, 39.202846290150056 131.65320044354578 M75.21898045989111 156.2814988404726 C64.01137263086868 143.55355214484436, 47.86753800682454 127.69095946779265, 41.50112038315519 123.05748337906007 M78.13026558645919 154.99944299595612 C65.79947405561161 144.36210984617333, 57.0934887283997 135.9060094097281, 40.374728588111395 122.9040857983192 M87.31911518325549 155.10491305981424 C70.72305175489132 139.15844860106733, 48.506284730341285 126.48167598010498, 38.04455783545439 112.85867341335029 M87.40729491016027 153.95073428295075 C73.59059802909336 141.59291271982846, 59.14190819509363 130.58565435604393, 38.853398386204745 115.42535706101006 M96.57517629663653 151.75568717889362 C78.32178532858589 137.09451808550625, 58.73267219514489 119.04988079356849, 44.32012696682234 111.34723468005276 M97.23340565981681 153.48921896604654 C84.40877159231852 142.98551461260217, 73.18507282550782 135.53336194246927, 43.81421900971035 110.3262526656686 M105.38411500323913 154.13185406166087 C89.05671446821499 141.08849028246942, 72.10368179616586 128.982381525352, 51.41916746683737 108.73622559778133 M105.48599585748224 154.30949777624937 C94.25768117103819 143.22748603139775, 82.06091249935768 135.3788669195724, 52.36878564118373 109.59870989200057 M109.99346888088817 151.12594279773472 C99.94110699758862 141.04279768095992, 87.58919818383815 129.89476083790956, 62.96209968135191 107.55605439666904 M111.19542764867785 150.28049713703993 C98.41072214877477 139.3736961170982, 87.07343708058598 131.17445457979355, 63.23630862464599 109.0162009515792 M108.04555543565719 142.8470541001014 C99.7068591913555 132.68411390899368, 86.67426337499113 121.73005406831619, 69.20552578419293 107.82257380957886 M110.40337765930911 142.3809912581247 C98.93875491837274 133.82990348142516, 88.5158761725297 124.51167108587684, 70.99391955785386 108.43388432108074 M108.12661124758236 136.38823628612465 C101.33906977474136 128.6428739266477, 92.24615944366326 120.8416154181738, 79.16265500994756 108.963261042566 M109.73998006620744 134.93904971393752 C102.47413127553402 127.47596708579326, 96.2708628636609 122.75791592805685, 79.62978203266618 109.09861721058574 M112.87290734023672 127.84080911394979 C105.4856260052087 119.38427282641895, 93.45682619510026 114.14653615442386, 89.46061265292069 109.74038834567969 M110.31862525517325 127.7993102460853 C102.93689164542839 121.59794515702238, 97.26916919788867 117.32225969699155, 89.9509805125787 109.01329156686926 M110.29769043687608 120.43937514225712 C108.15732729044902 115.3052821141412, 101.89435741982086 112.01921950689722, 97.83365129011325 110.05932057558161 M109.87484542532712 118.43926143478892 C106.39789038311119 115.33276172928096, 102.63942261640064 112.03447778164936, 100.27651054184184 110.16775987194099 M110.22882359119212 111.21147696942666 C109.70520056329052 110.68131014515973, 109.32563247640806 110.66146281933621, 108.66171830490144 110.0963124988221 M110.25743144936858 111.15124240400395 C109.76281971025861 110.58103363887588, 109.05513506660623 110.19077289665469, 108.83219109633714 109.87075123859711 M110.16982909835382 153.7976055619098 C110.16982909835382 153.7976055619098, 110.16982909835382 153.7976055619098, 110.16982909835382 153.7976055619098 M110.16982909835382 153.7976055619098 C110.16982909835382 153.7976055619098, 110.16982909835382 153.7976055619098, 110.16982909835382 153.7976055619098 M108.87806721720985 143.48540367297016 C107.77866237734139 146.58647776742995, 105.98228852073959 146.8108784987856, 103.40931369876326 155.05241802855667 M110.73123399982515 144.40134713930723 C109.18876261314935 147.13215084642383, 107.04348730945354 148.5341680265356, 102.23725161602708 153.95624558866078 M110.93615145395886 137.34730616292708 C105.227826580672 138.74681025304028, 99.4091625764893 146.84286163993445, 94.76190941060844 153.60873544558177 M110.24946068752553 136.47980798073527 C105.17484397872897 142.08777342689544, 101.30778780224846 147.0314392374773, 94.40353144910418 154.61602986152488 M110.54456349485358 125.96199791335161 C100.98425066884727 136.53064279886618, 99.02165572986223 143.56648290777716, 87.90896140082076 155.33382894020662 M110.40656896144705 124.8892925969846 C104.35771668012949 132.23272094357137, 99.9863135365818 138.27654382673995, 86.93292111567453 154.23485036353415 M107.3247356204927 118.3969847709754 C100.16636525757211 131.06545499217663, 86.4119229162223 144.99548014666843, 76.63414580914957 153.03540545284042 M108.61104084550368 116.01509874022639 C101.38896344871843 127.25578114717041, 92.68768795158377 136.7261580372506, 79.05559341776492 154.60836245956716 M110.09213127433613 108.81795769842097 C98.37451971062863 122.1290115291979, 84.96252374330707 135.92806349521553, 68.8946777109498 151.49412651729108 M108.80956294026014 109.4303045844992 C99.13610593852829 119.27440383264731, 91.23569891957783 130.1126639711921, 71.9212427807044 153.54320634450372 M98.78420244605515 110.81160579846303 C91.47236094789776 120.2320928596444, 86.33731257851977 129.79532429188345, 62.48452025602922 155.7380616915369 M101.56030601138129 109.92682413435824 C92.01259285631005 118.14298090078856, 83.53509321964845 129.58716401343744, 62.59624391175454 152.35179150264213 M92.67588949306727 106.85499374741296 C87.00472497586954 117.85401350233127, 77.11173718957404 126.43652919571072, 55.930165773330856 154.28484817326188 M93.15711987821662 109.81207451890347 C81.16633685889404 122.85241432236909, 72.50365224578671 135.60809600286913, 54.75013522675477 154.71866477348007 M86.33241353170504 107.06455175044967 C74.22871530041552 125.66242400736972, 59.10425376260721 136.8044545737345, 48.59444805837089 151.9094147235283 M84.76173414270349 108.28630724399969 C71.8276211735066 124.84798424469167, 57.03573399569989 141.79976429318208, 47.80602231096588 153.46658483921206 M76.24094325823135 109.72659375038673 C64.65761017840566 123.72425022837437, 56.73311099970843 138.3784229941011, 42.02953904714982 155.55080421916446 M76.27026654186945 108.74345816932038 C67.01983295801676 121.26050988048168, 57.22910338462701 132.90106178180204, 39.85587304708663 154.12725868220411 M69.13911295426256 106.54976265676025 C57.6564328954318 120.33117254541752, 48.59191704668173 130.93395173918952, 41.99065328325029 145.24216379109887 M68.70954262454121 109.06934602109352 C63.1261751575725 116.46744000522649, 55.223040422725724 124.83608692094256, 39.317721427535226 144.55158703716745 M60.45983170160336 111.04714490301217 C55.662401296552325 117.18086601981892, 48.73437572491054 119.84554627072123, 38.5002877805861 137.66136444052566 M62.2499493003745 108.35193469676432 C53.632156114691895 119.82663394945635, 44.79992570551953 131.05223778843612, 40.84020590422215 135.42075756132155 M55.963525841317484 111.2575978316 C49.78341298596459 111.31083581137366, 45.987033439335626 117.7826742259463, 37.39349731525156 123.7954292715247 M53.23635499873118 108.50658386800343 C49.90550876591826 115.85295611047952, 42.42071395112535 120.84445593783096, 39.54186173309915 126.9474805278247 M47.05777590832553 107.77626158616178 C44.043782974179635 110.21185106625998, 42.44936477754757 113.15311198071358, 39.84233558157446 116.70626361852592 M45.530310358097616 108.97213599022643 C44.21280060151717 111.6074268014596, 42.53996775324813 112.80015383121504, 39.27361577915143 116.61020831089648" stroke="#c5c8ce" stroke-width="1.15" fill="none"></path><path d="M37.75478594727338 109.83504462876076 C65.15601096436694 108.5459572747343, 84.64528345501212 107.6550975060133, 109.44843718275654 108.35859545540103 M39.367158114974806 109.3660796291937 C58.31619267727004 111.17453025028512, 73.7688863661855 111.68123781031905, 109.75753468841957 109.4027909170394 M107.44105329428935 110.22321080067954 C108.26053590535524 126.57509777577047, 112.04295764376594 139.98822770282845, 111.86840446109608 154.45868200208912 M109.08835663373068 109.3679671066256 C110.24121994034239 123.46802464090234, 110.35235964019665 135.74013924165592, 110.7678683931644 153.37003137953397 M111.89734851320017 154.13792436839455 C88.58125975277862 154.84873428849355, 65.5017472560634 153.18524700641493, 39.8250195345953 154.7653435144782 M109.08678423557342 153.1830033351633 C81.7910105508261 151.8569393588054, 54.605080114040724 151.83002478229454, 39.014365927378556 153.74681173031135 M37.709643897545234 154.65834125885647 C43.12320962991488 137.73469620075625, 42.65927058971893 120.58595058096162, 41.42711402651689 108.69923833319848 M39.45815556459221 153.10176829263875 C38.801304452385686 144.15278777779807, 40.25579432094167 135.59551918126758, 39.69134924335887 108.85478188350226" stroke="#1d1f22" stroke-width="1.7" fill="none"></path></g><text x="75" y="140" fill="#1d1f22" font-family="Architects Daughter, 'Segoe Print', 'Comic Sans MS', cursive" font-size="20" font-weight="700" text-anchor="middle">root</text><g><path d="M107.98559684877847 129.84164249190616 C126.94694364219708 130.75181400242974, 142.90765466083758 134.02843548874054, 158.22078683439878 133.0108805661229 M109.18547301622534 132.02395687211623 C122.3589221897257 132.8361887007571, 136.38024302788196 130.99838920384133, 160.16390667476975 132.34481708400682" stroke="#3f444c" stroke-width="1.6" fill="none"></path></g><g><path d="M153.1467643084549 137.30234290448087 C154.76754424670165 135.9429473401101, 157.56155666934052 133.83535494859376, 160.8449747762811 132.4061522935562 M152.8162496160653 136.6262565877345 C154.75945538759484 135.6523105920008, 156.2731000643161 133.75180814903467, 160.3856000343109 132.13925250471362 M159.675462532368 132.22344408726968 C157.11521638373725 131.0073776474857, 155.59048792704758 130.0646959755186, 151.6400991065502 126.49917946592126 M159.79792875330932 132.05511363213387 C157.18782116699168 130.23788356148904, 154.76593515814514 129.02392303044886, 152.29401652390132 127.35102558901366" stroke="#3f444c" stroke-width="1.6" fill="none"></path></g><g><path d="M164.70382806230828 153.7514822363178 C164.70382806230828 153.7514822363178, 164.70382806230828 153.7514822363178, 164.70382806230828 153.7514822363178 M164.70382806230828 153.7514822363178 C164.70382806230828 153.7514822363178, 164.70382806230828 153.7514822363178, 164.70382806230828 153.7514822363178 M175.50069464554932 155.80079273887762 C170.53765242222568 152.75577031278428, 168.28122877833107 149.80813100394, 163.44143087969718 144.58932343202574 M175.17580348250672 153.87444516589244 C170.95157230324097 150.76791896282714, 167.3217642130154 147.69479428721925, 164.35306713244404 145.19191439199253 M181.54025413911194 154.09637780960253 C175.97548912740905 148.63328009991818, 174.54469040030156 143.7944608405355, 165.9677112775428 136.99514649687075 M183.27675491663126 155.25329779577052 C178.15851751686824 148.66253728503185, 170.13424039818392 142.58773779604604, 164.85367746726695 137.32265651644818 M190.6792461942244 151.54460636704837 C185.37384313997003 147.40886366137167, 176.07334288584337 140.6689618492255, 165.42767560235248 130.33336336513145 M192.6967547461806 155.07179637686943 C186.10889278724176 146.9995416035139, 178.04311427569945 142.51712625580342, 165.5002777266269 129.33762152492508 M200.2665692694946 153.26822519396157 C193.777572657793 144.15411372830243, 180.65809710879844 139.4268375695182, 164.64379528671478 122.75212365221378 M202.35301960728032 154.3996351780962 C188.56789934057483 142.81913802511414, 175.91102453024604 129.19692030362623, 164.31734297358108 123.49983395370207 M211.96508716024297 154.2435247199104 C191.40756544571465 139.99136975544394, 175.5167825186037 124.6225375209506, 164.56263254377683 112.25494280751454 M212.46631425027553 154.8679381090634 C198.38921212575156 141.23276333718312, 182.388388748209 130.4332717291006, 164.30842449743258 114.50050149561244 M220.59460161344626 156.04245017270378 C211.33896207136632 142.43212830109584, 200.37692750150035 137.35011826684274, 169.3313243700343 111.06278904699658 M220.4311016273806 154.34722157669407 C204.30749616904012 139.97308448073923, 192.03688628164008 128.6169878576772, 167.84301270907127 109.90194224876811 M228.59658458787916 153.43466789549 C218.0890894188575 141.66007016623809, 205.1564568055709 132.53084866061877, 180.03808625179474 110.58102120562252 M230.3758435533086 153.4468271724988 C217.25054755079188 145.18540613109084, 205.3677844231311 134.83834837910294, 178.18522658544063 108.94843612725398 M241.31265935823492 152.8077258808281 C218.705089310255 137.75108199367736, 199.4667850542437 122.34689924125958, 187.3470468597809 109.97495639851208 M238.97085968286763 154.16881770961396 C224.80851850723053 144.65644151874798, 211.34309461367505 130.912603791743, 185.93814464427564 110.41860119783601 M251.78287858465438 152.79041294663392 C228.4371070954765 138.86656468455672, 211.0783888774821 119.81282561633923, 194.2804110539765 109.53978344882105 M249.75477971523907 154.38214347352556 C228.25576785217504 136.12011414591865, 206.92163330553223 118.63617875313739, 195.41528982739504 110.20372103340857 M260.0062937237437 154.9215559028063 C244.18715778493947 139.22542693152243, 225.32452603820875 128.53888265525643, 206.03078999861373 108.6711454801618 M257.5559350311902 154.693820262455 C242.0198923786104 139.56712692995436, 225.66757161275314 125.95923476338947, 204.5681022741555 109.03425747241391 M267.9166890506383 152.79480286240857 C247.81623762188028 140.12965252284985, 230.00649653382598 122.1577339816874, 212.21535587333014 108.28858765685861 M267.3666754980051 154.1129422206051 C248.52806132361843 139.93929347373887, 231.60179126594497 122.39836906152047, 214.1036660971845 108.57680443267125 M277.6848496798407 152.83750770524344 C264.38818431743556 142.04619101207422, 250.00584246615702 132.08244238265482, 223.98616279538612 108.70198269507327 M276.986185549525 154.38603990995114 C257.3534408229465 136.83968997377954, 235.04320404597308 120.37964805063893, 225.11491168444243 110.07398049381038 M287.39930682759444 154.92459271619774 C263.11056863976864 133.68810408560748, 247.11571784952952 121.4271820973933, 233.5613924926965 110.1475180621105 M285.65700263982427 152.7057377160115 C270.3716215212815 140.30746428099377, 255.31864018387304 127.02192398639863, 233.81482253865664 109.26056388451372 M294.1670140181343 153.33490277586483 C279.1171426203825 141.2836607097533, 264.2819513638763 124.30244595812377, 243.22021004806754 108.89553079350756 M294.5296887725019 153.50861126396637 C278.94794749908755 139.3910190635351, 261.696969484282 124.28845612228113, 242.34298068184486 109.0149412820306 M303.951265085783 156.3830528840494 C286.84877045818655 136.39938586986622, 265.46661442259017 118.97546185294503, 254.37584868012777 110.12114704105242 M305.6187289453782 153.88119330561275 C294.0520994984825 144.75541077840512, 283.7883188923712 135.40298088775907, 253.25811842879764 109.90484307164097 M315.21862760503893 154.04046391638082 C299.41753235536174 140.19068442043857, 284.7911840143601 129.08400799455964, 259.4264774696431 110.58375264551943 M314.0650981007103 155.12574476792332 C302.72501638304203 144.50462871018715, 290.8975057116329 134.54420030634566, 262.70199199470613 110.73297518122655 M323.3479713517877 155.80218415335995 C304.1621085453556 138.93181448585315, 288.49041439287913 121.43457907370707, 272.8629465467182 112.16215644538578 M323.8967311790995 154.78101798453477 C308.96775632580363 142.38313497941354, 295.32554523325757 131.65042423274616, 270.33148951972413 108.7574655358599 M332.88826613087036 153.67128977852457 C311.43107385915425 134.68666977039229, 294.2757513915498 122.22185070591097, 280.22109317781826 109.46721489755389 M332.3884452641896 153.1266468182554 C321.0765366371592 143.69608421250004, 307.6579382028887 132.42096021741511, 279.20069073700427 108.72759271925734 M339.93982210611694 153.40345279444372 C324.62968542929536 142.74659364226721, 310.3465450590451 129.7912854769238, 289.69496383264544 107.84337427247104 M342.29024278848163 154.057693294327 C326.74742083884166 141.18230023944193, 314.0621035387685 128.6966984532695, 288.6970179108385 109.60601340387838 M351.7402317102278 154.69641047176515 C340.42880677119194 144.03019766448807, 327.1892905790208 131.28742186754215, 297.79290777415423 110.16794591388681 M350.89726406844625 154.32326874845538 C337.95260243851436 141.77054737908014, 324.97230566605987 131.4081412793904, 298.1468147907267 109.17585894027835 M361.03125039172585 155.4871180065169 C344.36405047972306 140.35702033839692, 322.9445611259262 121.79323487432922, 309.06699132530395 110.56173947163346 M361.38041484285225 155.46065640409927 C342.4687593497039 138.51590226710198, 325.0055777944804 124.65010192370848, 309.52900249874966 109.24985958145436 M369.9769192687147 152.13270376019162 C349.3102944622376 137.65486986133033, 329.7403482701939 119.5866582239389, 318.33273929796854 109.95709104846918 M370.92294601220607 154.88519879822226 C351.2829277575963 138.12958113421726, 331.28992469792394 122.21112310065375, 317.0838884677849 108.5429892484246 M378.8764504797577 154.52968184052568 C359.91238576206126 139.68902629365374, 336.4224562918498 120.68004132000847, 326.8238311367033 111.24577244459341 M379.6442082695513 154.23592916148021 C366.31611024431976 143.1382969287394, 351.10549684964315 129.01231878286274, 328.08077743103445 110.46810461217741 M387.2952072007831 154.40324155808045 C368.9111833192217 139.162549864715, 349.27948644718754 121.09033544133031, 338.6118182700661 111.54770919146104 M389.5514276177265 153.1325813878578 C371.7559160446802 138.70515834184937, 355.4792420439674 124.04583328831359, 336.7232296282363 110.78014999072587 M398.26123499133126 152.76169439448321 C386.2635472398772 142.84191073690005, 372.2858966749144 131.82732026663226, 344.97180731250455 108.2498022246617 M397.516199978578 153.447555348989 C378.6106596713556 138.9747737996133, 361.03114933402 122.36689287410225, 344.94836166107393 110.46636175759322 M408.0710726248042 155.6177218730577 C388.2590980255082 137.691289042797, 368.8049992910652 123.63559309782187, 352.0970969491231 108.07624039854186 M406.3487937066343 154.7398978900654 C388.3538671257689 136.4600366928181, 368.3966018689042 119.95855631250129, 354.63819018186376 109.9393239847861 M414.2703573390551 152.1423969764646 C402.09432829967824 142.3095140771532, 391.30757074676563 132.85760079035032, 363.70678816801984 107.55056846004106 M416.5907222673248 154.30681713029622 C400.13798234667786 142.35314283066137, 386.19094945888975 127.97533412221746, 365.1646938451829 110.89535839202712 M424.3236722744026 155.61263255022283 C406.71317913703865 138.69998297791423, 387.25280695453915 120.7689788231327, 374.95583722799677 108.45770695725078 M426.26552707294906 154.58755562610284 C414.3899127437511 146.42363748217662, 403.123385572152 136.6012036534927, 373.1495243392802 111.04380900842008 M438.4227170067933 154.8110104430388 C414.79752490759483 137.45206756153812, 396.22276496388764 119.38064230227587, 384.58993808967546 109.03197579431618 M436.1245906513754 153.8594271300637 C419.7281004834713 139.80887164396947, 401.73813561844315 125.80499238491213, 383.728307873068 109.09157505230382 M443.4756085041881 153.30670098448425 C429.22425401838984 139.74877828990938, 411.9837150537863 128.51050334039272, 393.21276790974554 112.07786072601003 M444.27274990498165 153.74849310233242 C427.52664181649277 140.6689347983577, 412.766028309537 128.10068109792445, 391.8140813411629 110.668030254846 M454.7787849594462 153.1772720236296 C435.9575479336921 138.26505789222037, 419.93143863472613 128.5139601484494, 401.17361832649476 107.98442592441745 M454.55845501818743 154.94057278676286 C434.65726795131286 136.4012489606223, 416.04892899355946 119.7345195665182, 402.30349056779704 109.84764247639025 M461.8251025351301 151.59448060461864 C452.48909749173026 145.1827214581731, 440.5671654410776 134.5827286021096, 412.3544734026222 108.49060416186126 M462.7329104334092 154.99178164668112 C445.7873938897308 140.38363540577276, 431.96139868093917 126.00923008366696, 409.67800085705215 108.99474523009854 M472.05605332055467 154.87041774120735 C455.4615433162823 136.69237912535155, 436.9286458577929 123.53382527795304, 419.35565977025357 111.8819635213271 M472.3463544025994 152.94001887621914 C461.8370891169073 143.5998316901189, 451.0298192291572 135.96497949288405, 421.1204450339365 109.27688933664484 M480.58091527793033 153.51129279849405 C466.25061885689564 137.6425998666108, 444.19260871973046 121.74178828679902, 427.52320996976675 111.00789482344497 M483.3514298079902 154.59554347645164 C465.2008752005738 140.17397620157558, 445.75200036689347 124.66321526338834, 430.19716083860175 108.91221650183846 M485.2795007040425 146.22801630812643 C469.51263969778523 136.07534072051916, 448.14094332630225 116.33214796312703, 439.2794379896628 107.59862049966661 M485.7453115347941 148.18846409052824 C467.63546977142596 133.96297347943866, 451.7635158758078 119.3433741259423, 438.3465430035666 110.25289994867629 M482.62225492617563 142.8586274452843 C473.56634981901504 131.5738278116021, 467.47011252132233 126.73730322132516, 449.01830314198094 107.3483844879875 M484.5977859035132 140.04865793216734 C470.8567339169132 129.6644075504091, 458.467363464458 116.85613085154628, 448.51712002479417 108.55086329790517 M483.2513599138474 133.88219751345423 C479.3987528110007 129.0572205333352, 474.9456925980826 123.98009628528969, 457.3562357872123 108.33380269859845 M486.1063037979976 133.2356459951318 C475.0334445257389 123.61067144421021, 464.1988931449749 115.53931240474411, 456.49425811671955 109.2415658988125 M487.43948723732314 125.38563740912512 C477.0916369523525 121.92522528499185, 470.80852855960507 117.19955755799691, 465.27903022685945 111.15633459007965 M485.89627187711625 123.84921152190226 C478.1568593169231 119.85417928351667, 474.3049079704962 114.03143711874563, 465.7721712843077 110.06650295423357 M483.62068078972726 116.21151866814473 C480.9296121780181 114.27307602921891, 478.35904453027723 112.72992484227669, 475.675907524648 110.4399548887563 M484.82519970287507 117.08401165283465 C481.39476817334673 113.87426316753246, 478.0975474410257 112.72526715494365, 475.821600857855 108.7470830841966 M485.14067634535917 153.83234846002517 C485.14067634535917 153.83234846002517, 485.14067634535917 153.83234846002517, 485.14067634535917 153.83234846002517 M485.14067634535917 153.83234846002517 C485.14067634535917 153.83234846002517, 485.14067634535917 153.83234846002517, 485.14067634535917 153.83234846002517 M485.06684669506177 143.58305653884895 C484.2167995512256 147.4710258880329, 478.70507816300193 149.28004018326857, 477.68963636638915 152.70931133104642 M485.10635236885685 144.93122508901132 C482.7108846151562 147.76651521513952, 479.4491734781577 151.5345546856519, 476.9646757969806 153.91987230125682 M486.94400744964213 137.02798167333887 C483.30483507085455 138.60619653407784, 480.86262979351176 144.33843677506525, 469.3325394150927 153.1273347443885 M484.93733750913157 134.10774582048109 C480.2204862547529 142.83635603039096, 473.76188250317637 147.51383979687105, 470.5335687536836 155.0421381291413 M482.736868213947 126.43355056596606 C476.52519265722293 134.54928344151296, 465.74202904061195 144.96248910431902, 463.270452265558 155.51846864401512 M484.35997816860805 124.93772048501309 C480.1741636802792 132.92014015389196, 473.21014809199335 140.3465925382444, 461.0753653074407 153.27778064247124 M484.37430905627247 114.55453019782985 C475.47077858364975 130.12918762586904, 463.3728024430369 144.51100302255531, 456.3967209371822 155.17424927982023 M485.1769401754882 117.28438485896639 C471.3055847561095 131.36294043784477, 461.35556735338696 144.27239916870286, 454.90320441687953 153.20435574007854 M483.76818685288606 106.81660518210057 C477.53377177478643 118.36809706921188, 468.06519386250017 131.26225302966972, 446.3533630583141 156.05356669057548 M483.26868037166497 109.1742037909707 C473.3789015248572 120.512744068745, 463.08632517414577 132.8557153854127, 444.7932498400819 154.44772857860738 M477.48195357642425 108.12857466164377 C463.24348643028264 124.16525459329765, 446.23677602012253 140.221210634685, 437.70222698074747 154.49878395335682 M474.84913043753613 108.01193600339195 C464.18575582970965 123.19122028932333, 453.53926318102066 136.91034578489501, 437.87144814573617 154.04441980624497 M466.297123253771 106.89510387179098 C457.3110366441695 121.97711945357632, 446.89869605561825 134.1467679243596, 430.0029290484941 151.14921601241252 M468.42658229702585 108.95835766097325 C458.6651272880709 119.45872994339923, 450.84735383967137 129.0425786857358, 429.53424879259256 153.74915337527057 M460.08100158226335 106.96990147656267 C443.44708767377455 127.78196798551525, 433.37790563136787 145.43624905451662, 421.1666024563513 153.48639876092955 M459.19996802238086 109.97816253002779 C445.64675523080217 127.02432501149667, 430.0409085137148 145.463228519071, 421.6940331693793 152.76374087859088 M454.23535123546424 108.7366915259486 C438.59656658624516 128.14431546824716, 422.02609187998235 140.3233923437125, 414.29722485262926 154.1074582046247 M452.00155651377713 109.08054644036078 C440.4768388933182 122.2545522439342, 428.40438607882686 136.84249822412923, 413.8538967958264 154.74440709053968 M442.34248276758274 107.63304777343777 C431.2057669129488 123.4326433546804, 421.10644834186274 138.31827934001728, 405.7184771831755 155.220407916601 M444.21742992974816 110.43715068759684 C433.0031889592956 124.07714204047605, 418.6730888891114 139.4710758794162, 405.7014700340162 154.41677946527338 M433.3527988454115 107.51717494847 C424.63841402923964 124.82202768817939, 413.7927779239844 136.05187419072723, 397.374428928971 156.22047999310408 M435.64746615554134 109.26638850555769 C424.2249328765967 122.75913907489301, 413.38848501830313 135.85777924050885, 397.98528873058194 154.09718624632598 M430.37712188747236 107.2673856669897 C416.1127357806447 122.79915929011304, 408.6083944547669 132.31545037624724, 388.8903851985113 154.33768848808663 M427.2917917294338 109.37562358012332 C413.87356327622786 125.52677279212169, 401.88251154905134 142.16850158253993, 390.5758905962043 153.9323818021987 M421.3029011333725 111.9932749127433 C409.4307126138317 124.40764059185447, 396.10569139311514 139.73523021727138, 384.23036379313345 155.1082171502531 M419.1732362653168 110.23867054289276 C411.6702740579563 121.07907230722569, 402.0449860595777 133.72681135708487, 383.5047967822126 153.8855236051655 M410.96644774625713 108.76867531698475 C400.0715159048457 129.55045560855393, 381.45558984838704 146.5653115539462, 374.7337941933445 156.00142008165417 M411.5404132443257 108.63588805256927 C404.41529685271655 119.31309815362368, 396.1093857884826 127.99860532995868, 374.867567761718 153.8311850824249 M402.0339596546662 107.27507162732165 C391.20872060489523 123.3057444404602, 377.6934884010978 140.26956053617607, 367.98138222258115 152.14217750963218 M405.63993157026647 108.6701126770257 C396.13234735104544 118.80377596621885, 388.7363897015111 129.68608146818133, 367.96393460321576 155.15382020174732 M396.3576534738374 107.71176075723687 C388.10249101876997 118.5700136715295, 382.70362577589844 126.95273964218559, 361.84287686968844 155.0022850131739 M397.35144971761525 108.84732101225782 C389.31568533072425 118.80628572542076, 380.7302438255047 127.8082188139891, 359.71490174570823 155.43606001438974 M387.4556859202676 109.90561894003473 C379.97381605021286 119.8650149656188, 371.18392115000324 134.55255265101775, 352.10733540143883 153.94289889139355 M388.15291294156935 108.84143992099528 C380.5110627725086 119.24291842273215, 374.1540872462488 129.27938183934015, 350.59143299159126 153.60113242450635 M378.7223568582402 111.06692712837787 C370.5861977825985 124.63116291913019, 357.36431771136535 134.25513349830703, 343.9383682176086 154.80502125214434 M381.4496574439257 110.72350702613839 C368.2182731001898 125.58268813025528, 352.66691981789864 142.6037637729132, 344.1577695462715 153.51279240651337 M372.27485506664027 110.40358272764084 C366.3788186714124 120.55099004155561, 354.201517187152 130.31791559298085, 337.5051969593447 152.1335134784199 M372.3016244825639 109.86871063391885 C365.6254313373343 119.12338664758401, 358.33434725887105 127.3490124109492, 337.0447257521047 153.78826471731873 M367.82954535282215 109.59182798319112 C355.53689802783157 124.70619451893563, 340.9252387540239 136.92511280746345, 329.03163503173806 153.92313166066376 M365.8344385406421 109.46386044567416 C358.1757789919094 120.84706010590263, 349.0479055042625 131.11399253137864, 328.4167413189184 154.62012003894682 M358.1622331574804 111.01057390843594 C349.2358851513145 121.1822510866726, 334.75978099957376 136.1464422535514, 320.2460478230057 151.7053671266087 M358.9435630085424 108.70788874328396 C344.8385126365553 123.35780739950812, 332.4347729185309 139.29056453992956, 321.01870822474393 155.30959569749388 M350.5061029405744 110.89070944057465 C340.11836906342967 123.60602147303186, 329.35224247553066 134.01789408227964, 311.9917811754724 152.83398674610245 M350.97572613435204 108.9709762135207 C336.54780895111554 124.436812158233, 325.41522568158985 137.02402701548766, 313.57828550908704 154.56320280535348 M343.1319675760339 109.95179915948782 C331.6540242407931 119.65638326864567, 324.34374667544716 134.20497773428835, 303.26334619310643 155.13868811357503 M341.24589664410166 110.56075435044283 C327.9233075710685 127.0462864439209, 313.85986521985876 141.38491209692302, 304.3639265997779 153.38238974085834 M333.60456021643483 111.56177399005469 C325.7800328785169 122.7117680442732, 313.75854126712863 130.84863190998567, 295.93932557237173 156.5100776161718 M335.5945628105543 109.56635374718185 C327.4803365251197 119.64484315284194, 318.4281220762415 126.84924055839161, 297.5521964738234 153.3045013965886 M326.4429354979414 111.00180941021345 C312.815481279231 128.25741494679383, 297.5484032400866 144.7963056343618, 289.5186520339354 152.4948758878299 M327.27228302037827 108.39508407373029 C319.50972887993 120.79763331091272, 309.1618728502383 130.24145460599837, 288.9366787236047 154.90190331844414 M321.01072483580924 110.14402220148185 C306.7936356656013 118.81047998637929, 297.9838050591006 132.57809030886443, 278.9081060650908 152.53668181771928 M317.6910131192775 108.45847050916178 C310.99217227120255 121.09079498950898, 301.1428173228098 130.677260585503, 281.53501206226576 154.36113989376258 M308.5339367679487 111.35379579854694 C304.86307150543394 119.95365522722238, 296.78947506371713 127.66639976685136, 274.679738001437 151.7899764358938 M311.5273381638775 108.34123959011652 C297.45394317576176 127.55266226215595, 283.1065045590896 142.93397949478654, 273.09014778425063 153.09519601686384 M301.6925919664878 111.7486411167888 C288.4884905081694 122.37568578210855, 278.3201146153157 140.13131863803994, 267.26541084694844 152.66967464810372 M302.7499035510905 109.3939480552186 C295.0833464480636 119.10892966041277, 284.3765069168898 129.713879025976, 265.4754082358165 154.24878949967928 M297.2694718039546 107.55594216870755 C283.46724928478505 123.85864509454326, 267.7902712216101 142.7236301901005, 260.143780419071 153.77272080726812 M296.0546408423287 110.09131613970352 C283.26540105919344 125.38884785974015, 268.3634135543239 141.51162741820553, 258.73715374200754 154.1116484776038 M285.8854511757975 109.81757120825644 C273.934678748464 126.39445614916994, 263.5353881703603 139.02952694617986, 252.51344311983226 151.4689108393244 M287.44792971565903 110.44911469794523 C275.9333112223635 121.35075570468551, 266.18023690392306 134.81277009655682, 250.23039595999364 152.68869808329703 M279.59275786664796 109.09317709513846 C266.9532262119257 127.96762115507453, 250.94084809217037 141.9885572437228, 244.26851879645122 152.99755482282032 M279.5191642791625 110.10322129426054 C271.8073795950996 117.26612569914458, 264.35165989038865 128.59234216806814, 242.38855437167908 153.56897707382765 M274.15397985256027 108.6534502196374 C259.4412139957065 121.8954322105453, 244.67630818562085 138.65966188948474, 235.46774977154604 155.58055755726107 M270.63781632101654 108.97202593344846 C262.58180792848907 120.85831850107935, 254.71256070920646 129.13323037521033, 234.4593483927829 153.61676750143565 M264.3023337967441 107.52941629391655 C253.40827659147934 122.68438299166952, 240.3960255722035 138.31745830471334, 229.28509113803915 151.68090102489072 M263.1370953284516 109.12658109456561 C252.81397308686158 121.06958310598183, 243.29286153489807 134.60087486700056, 227.51413927675577 152.46894944176077 M256.8852924068961 107.65333512498181 C246.5021824388108 120.45575564738095, 241.22243521666996 130.2618406833529, 219.7766681177705 156.1784200241369 M256.94877044032904 109.08305047112759 C242.72975279002608 124.40470119190334, 229.3832675978832 140.56419241571783, 219.4555892392116 154.27712410639 M248.74347830811604 108.39247610680422 C233.41589691800604 125.71670912753521, 223.21663256742792 141.51867861943117, 208.9419810658369 151.43116589099355 M247.53721752109536 108.08635565851282 C240.3203873913954 120.66919594846942, 228.93688997919293 130.40130393514792, 211.35079318300015 153.05342037558313 M239.71920593692806 106.77611883066196 C229.76382813430254 121.47613708226869, 220.92867942075176 133.61809592716665, 202.95809338699894 154.01299222025165 M240.02278515595842 108.22775894268005 C231.33008080367938 118.21796487311283, 225.30158896671617 126.37000303201047, 203.95600709501855 152.88117953562787 M232.35086909217813 109.51462390421456 C222.4003723505391 122.03118534603594, 208.57769803602218 135.4662021384235, 196.8835191610351 153.73797568093036 M233.55910018181748 108.47958054099733 C223.4272042700206 122.18039279686252, 212.93537941220595 134.0505597995084, 194.41225941932237 152.70265408261903 M225.68622775161307 108.04398148088067 C217.3859836445202 119.78762255133377, 208.6123853904238 129.29903211950304, 187.76192549520732 155.19802980418794 M225.2416291419541 109.80435146247976 C215.56957759785348 120.90843461417325, 206.08010233904722 133.13782011375372, 187.22438324788126 153.25001869503018 M218.0633244125746 110.01685908287739 C206.79961391869634 122.71150704889878, 198.7148165843573 129.7196828567785, 177.35027328202324 154.20365181899544 M216.15888489996837 110.30896304770147 C207.7035406099929 121.03436774754952, 197.35673884092986 131.48141266781406, 179.80844874169628 153.94086525735688 M207.48088992871163 108.12975438080434 C195.7624572983497 123.30354463534574, 182.70395892419373 140.9135972614176, 170.3577339611483 154.9449128323772 M207.87427358693643 109.0923052891284 C193.55464621802116 126.82103463742504, 179.67434136561062 143.50956612494159, 170.14936927707473 155.04974431566896 M199.7043283453117 109.68180592169087 C186.69529358480952 125.36085861586777, 175.65203521381457 140.26230347032126, 166.35356747375454 150.9126880590175 M201.21380444687466 109.4352439812466 C187.93572192013812 123.53717525280287, 177.98823802892065 135.76625815273601, 163.13341048317403 153.53082187375867 M191.97959566351417 111.05563482823362 C184.15081129408367 119.05484263851734, 173.1279959237756 131.25204392988468, 164.7055736568264 146.1398593464227 M193.9789222596572 109.62268247035678 C185.09222287352338 121.31252094786439, 174.21059733639697 133.2549788821365, 164.2770072217259 143.53006963421316 M184.79271877630418 109.1048872266575 C180.43293378778029 118.33432911514133, 173.8830636516612 126.08605502003145, 165.8405267909304 135.5021974710675 M185.33279470495384 110.47433917969232 C178.31336464465613 116.79418085847989, 170.98435299716442 126.44149239695194, 162.97929852154132 135.56412738585604 M177.78464518423374 108.3200683018124 C175.4773040926473 115.50083459657701, 166.63789561124977 118.83255019047846, 164.45177224407036 127.60912409769264 M177.98760176343188 108.87016388716003 C173.91443737517486 113.86488081049042, 170.3251351569924 118.5408122151492, 165.77958429156877 125.60277398206752 M168.76009070843836 109.30456432025369 C168.36132122821846 111.12865274062699, 165.61865185742124 113.75582709226902, 165.2733026836708 115.17540813168797 M170.17913142440761 109.47528873761586 C168.15435823918875 112.06228811255065, 166.4079388959665 113.6940815278964, 164.67788419302227 116.17860842464911" stroke="#9bb7e8" stroke-width="1.15" fill="none"></path><path d="M164.35589488843743 110.22859417459092 C233.98018487114754 107.15120319185215, 303.21318611335647 106.18015497796614, 483.31158578511435 108.70833973904944 M165.81080997316312 110.467095288292 C266.90397162727174 108.04822541612386, 369.15436946763003 108.74938290992922, 485.088170555652 110.64926486050607 M486.32551465926286 107.40589722407601 C484.09230191024665 124.38394572092923, 482.5043691263002 139.70264998258511, 484.1934236531433 153.31581272501305 M485.00654177079554 109.80721920688896 C484.2713622011866 121.74282898386251, 484.99193699937024 133.25364870063598, 485.32254912262744 155.1722192871154 M486.7639673688341 154.84151264363297 C384.5921130131424 156.20570912354444, 286.66685406382925 153.5237630417016, 165.13854714081262 154.1856800638043 M485.43680718178365 154.24855220962579 C401.94554439768154 151.93099897034276, 317.2295521263526 150.93889364232706, 165.74632066426508 153.4857859774828 M167.37821792148128 152.5921893336558 C162.13041029896007 144.9440865184218, 162.2649880339297 135.32879594369712, 166.23388847465486 112.10103432582702 M165.53039827690546 153.29284557183684 C165.6979372341822 145.36085983346828, 163.18969704502 134.35225098835613, 164.79761241365577 109.75938424185631" stroke="#1d1f22" stroke-width="1.7" fill="none"></path></g><text x="325" y="140" fill="#1d1f22" font-family="Architects Daughter, 'Segoe Print', 'Comic Sans MS', cursive" font-size="17" font-weight="700" text-anchor="middle">“You are a helpful assistant. ”</text><text x="500" y="140" fill="#3d6ced" font-family="Architects Daughter, 'Segoe Print', 'Comic Sans MS', cursive" font-size="17" font-weight="700">← matched, reuse KV</text><g><path d="M326.37214448175706 158.75179389487514 C304.1356844723368 166.72718309030446, 278.83271259828194 177.89570183809192, 250.01600800624345 188.82531843973806 M324.3923627540354 156.860913949916 C307.6428693006222 166.81380934611954, 288.9080681721668 172.62933206651263, 248.9075532161381 190.24076136281104" stroke="#3f444c" stroke-width="1.6" fill="none"></path></g><g><path d="M255.9505675815518 183.05499646870967 C253.8706038216299 184.23941476571406, 251.71386448117516 187.52022175366835, 250.08441856981955 189.50628801878472 M255.54126247451615 182.7480822438248 C252.94201774290093 185.38500178135124, 251.11059292318004 187.52385167921156, 250.01837653057368 190.3465438992557 M249.24755310839845 189.58959304953822 C251.79292616304784 190.07316748014065, 253.68099773254383 191.47518904763785, 258.1501811375314 191.1062006043595 M250.24224831850591 189.60387971142592 C251.86952244311172 190.04807456304755, 253.87668195913525 190.2394123913293, 258.68682330406784 191.09838250509316" stroke="#3f444c" stroke-width="1.6" fill="none"></path></g><g><path d="M325.01165225103 155.99018539222703 C354.99864747197995 164.22418044477755, 390.1482176497121 171.7841300043645, 478.3809049224707 188.8117784054948 M325.74217712409023 159.1253401895265 C381.70278260107517 170.87952661179278, 436.3937593778898 183.48209955538027, 479.7235206287838 190.27784640727756" stroke="#3f444c" stroke-width="1.6" fill="none"></path></g><g><path d="M471.44304789906187 193.3324413520396 C474.79342587756776 191.54975906593492, 476.97044658775604 191.53349166142482, 479.18974833603494 189.13211178399317 M471.31047118160666 192.93090646827977 C473.88576463864695 192.26222210491323, 476.21331045824195 191.68461349481515, 480.11674322826934 189.68194913824198 M480.3453281274865 189.70674921876935 C478.0022851535276 188.77946902517664, 475.99975096596665 187.0044868225931, 474.1968993952018 184.07565394676453 M480.17725798209887 189.59757583447058 C477.5003625779805 187.87185811294705, 475.1432052492186 185.07083790691058, 473.2641943932164 183.57936992831756" stroke="#3f444c" stroke-width="1.6" fill="none"></path></g><g><path d="M79.90521562577061 243.92046646654273 C79.90521562577061 243.92046646654273, 79.90521562577061 243.92046646654273, 79.90521562577061 243.92046646654273 M79.90521562577061 243.92046646654273 C79.90521562577061 243.92046646654273, 79.90521562577061 243.92046646654273, 79.90521562577061 243.92046646654273 M90.5687282838689 244.20280479942838 C86.40629781638927 242.84130236967172, 83.55271350800788 239.91864141097076, 79.77073388175228 235.41521061745289 M89.07426289315362 243.8365105462487 C86.43607319733756 242.57179176620411, 83.86265420693933 239.19105329377683, 79.63069457304616 236.87007054583728 M96.36132941414296 244.77550719998078 C89.15620733505142 235.99666573277497, 82.9839090311109 231.1781356788329, 79.04721934765082 230.52373147232254 M99.60966546184474 243.603864148778 C93.7820243773233 240.12018712289594, 89.37873669794314 235.3757133118319, 80.04729142215636 228.58060461044508 M107.58144732142802 245.60917106294886 C100.98811680563077 239.4343955610867, 95.01764899419551 232.7400601588519, 80.95246196169595 218.06981652669643 M107.96884202149211 244.46034179216795 C98.1184523349711 235.70456016604456, 89.80958494447279 228.60841765746642, 79.15950919269943 221.33821278400498 M118.20929422759946 244.54144154601482 C103.423945897725 235.9299447112404, 93.60088055137994 225.40891650763447, 79.56826688532175 210.3535792337545 M118.46328834606153 243.48318590411762 C103.27799960077907 233.4375482181059, 89.66145689298109 222.08320799049247, 79.4406693777622 213.4627921842345 M125.28937972545256 245.78724371743442 C111.04621077714586 232.77932761478465, 100.64726606368808 222.07320574100953, 80.81775804298957 203.7815732769899 M127.68595647664807 244.3739559562839 C112.7975715513925 231.02264924351547, 98.18874974859222 219.80202985313997, 80.16187469399136 203.88305751119498 M137.64056873540167 243.45840476715415 C119.2851820223488 231.3472537393205, 106.37451375738151 216.6088282030581, 82.4150205989911 198.06177636326825 M137.10088514062673 244.8715174404996 C115.64622241105417 226.59071660451428, 95.34775580361554 210.3631264702728, 83.78308385149592 198.51260975754087 M146.6505130383338 243.9920451378368 C133.37896184018638 232.02388508976466, 122.24860748371162 227.6143215111603, 91.55427259680108 201.12117443469384 M145.69556126325904 244.92617818156458 C129.81325845313924 231.967892393512, 113.71799630464432 218.03539844591734, 91.27655380367193 199.77419968955616 M155.02681560874018 242.36317442754958 C138.9287366637104 227.79683187738112, 124.70603368765177 214.97182749726863, 104.78212605170242 199.73353659589424 M154.8535403449265 244.91400160558638 C133.61562070103915 228.2646135627987, 116.64770706859142 211.1381893010729, 102.4340691117908 199.66764917952943 M162.57662015068684 242.71032853482322 C146.83145219839432 230.8965483053198, 130.65975394110762 215.66665168726473, 113.40272014387048 201.77997004814952 M164.39487784292848 242.53157944681726 C145.75820381380186 229.46193372606072, 127.38312081600345 213.55705691582995, 112.4969094540114 198.70068165292366 M173.88044668925411 245.0564111465248 C153.51501528682843 225.87146593103012, 136.9859749330765 211.91801771686977, 120.7689182725661 202.12723500712008 M173.02731548683067 244.8255101179923 C162.6165491996302 236.06333030045383, 150.19784054114035 226.19751537149804, 120.9620007352728 200.6119889356507 M184.14667174871937 242.2468808131469 C166.4254232242995 233.40416504922942, 156.03548029545325 219.39110349892482, 130.9845196703643 202.33835856290068 M182.32865139209156 244.54248650061535 C169.62043064395596 232.76805298290455, 153.7555352940481 219.41385096168838, 129.81203084940066 200.65572486786573 M190.47381561388121 243.1050429730885 C174.47214970370467 231.38256043301718, 162.84351810069 216.66842923518197, 141.79994870319885 201.42936601609966 M191.7786536352175 242.9555908721149 C174.8613086205177 228.71104144029823, 156.51610756848572 215.26683088922042, 139.47276996838417 200.6581985188214 M203.57741708308876 244.29096725053378 C182.93073911002125 230.35657389272544, 169.10050060969755 216.5000615655451, 145.84572138681887 199.9490864561465 M200.94588286774504 243.68626698252245 C187.5397435058404 233.17636905664156, 172.31746037358678 218.9481457056964, 148.536176365092 200.3617963733769 M208.46928580489936 244.29559230908143 C197.19247419670407 231.25487635078903, 180.22196890222307 218.06920445974754, 155.9060857548719 200.1914526872986 M210.96483059151169 243.4950171784963 C193.95692308652843 227.06639449959414, 175.8348841456515 212.35590444751227, 157.0141214830223 199.90033986582117 M218.5470994522596 246.28901143768238 C200.03582941638308 227.60060001234757, 185.72995725336725 213.64801298186967, 165.73312553400754 199.50170630506474 M219.88880834685966 242.94950404376146 C200.18899482967976 225.80005281136442, 179.62398783692313 208.77305589882005, 168.24212467581893 199.28982458583727 M230.31077016612167 245.8202339995008 C210.50172160758015 228.60603034558713, 197.79251974279956 214.3919518731186, 177.13427560975532 200.3053698049745 M230.46738643350628 243.17463607715308 C210.1781975151485 230.56615333303296, 192.66101424903906 215.02838646735657, 178.1028273634876 200.07556033997145 M239.52672844718688 242.75950204993342 C215.7913959172953 225.90727690655245, 195.62334930943155 210.75877801379346, 187.23555101638487 200.63487993131287 M238.5021785633896 244.4274090394188 C222.42874820618076 229.58303654698514, 205.2989342968149 215.86481421347725, 186.451092625506 199.09990357446338 M246.77126178033427 243.09914665331775 C229.26824624708343 229.4773909661724, 212.3735477100453 212.05051425690877, 195.06008757364796 202.16036537136728 M247.9023203101622 244.59678390057556 C235.23164486738517 234.53713016524372, 224.10667407360873 224.38661788839445, 195.5769508484155 200.05059719891688 M256.21536276377964 243.53751629802807 C239.98085098157202 230.188491018128, 220.61804512508712 215.34702320732947, 202.55541357492177 200.25645890258497 M256.5517629122495 244.84430952014432 C238.06481037559575 227.59405672895286, 221.2311538493641 214.95083546017398, 204.8151844788404 198.42624757014968 M264.65358253619644 244.29404622451005 C252.40756575956522 228.39957494607322, 236.07826832854306 218.16737440478607, 215.59424321840442 200.44044773932526 M265.9263930764961 244.4377261552904 C247.04011161024397 228.9148419842699, 227.85507655776067 210.2392068764921, 213.92708374831193 198.6618259911786 M277.31860542329986 246.36686893676523 C255.9750157264885 226.74261708949453, 237.18966226517398 210.30221900064203, 224.1981013178735 200.69406050396546 M274.72196693836423 242.52733868126293 C255.25910275044092 227.74978445287547, 236.828052982453 211.141642515041, 222.0902997853805 200.59057524312783 M286.6205176762643 243.1432257993078 C268.8093883223855 232.43587965709978, 254.81016006658552 219.08415609179642, 235.41462849759873 197.98618699849243 M284.1805966202282 244.89317026299133 C271.41220082232525 233.31075157980928, 259.11897485713564 222.81137269000766, 232.25221660716377 199.02784071121934 M294.7890491935134 243.57431417285818 C279.09438135294295 233.23760434683513, 264.0527339482988 216.72235287952583, 241.40196664383205 200.74978259577912 M294.4496388054444 244.9129435051364 C276.44812850255323 230.370813927437, 260.3067752731293 212.98907439605307, 241.31850310955946 199.9408655003957 M305.752768728255 241.877122123639 C289.06809920194 227.16240753377892, 268.99442259035345 217.12673908284953, 250.16918199473696 200.37239902328633 M304.2262555228156 243.9825684189778 C292.8281347563247 235.3838575510597, 279.9951751067773 224.85282363524286, 251.19194038358074 199.90789204024298 M313.571566720443 244.87074448171538 C294.23642690826665 229.29441921022055, 274.42253677036814 210.36089296169644, 261.77631000741894 201.4332742803436 M312.2826051455343 243.53607722864444 C291.9213770721282 225.8955987275133, 271.86617041958925 208.0361240198421, 259.49898348507764 199.8869733381648 M322.45205591936633 241.98440905415384 C310.3361064000542 234.6186274528414, 294.87016169667896 219.39393204711206, 272.07821709084675 197.3757299022324 M322.7751247369026 244.36256169218282 C304.77779094762275 227.76193380779432, 287.5854388320909 213.85835236211423, 269.6954353544087 199.66867651080258 M332.9120428927319 243.64065918792537 C312.9664365243371 230.98354336786923, 295.4462955394325 213.66576304758965, 279.70817267179706 200.34625290532924 M331.28581595810437 244.5370493711544 C315.2360218426682 230.73251742417995, 297.47415791810056 215.9075437336776, 278.87763721991985 199.93970896167068 M340.62922900941976 241.9572063663048 C323.6226596617899 224.83517286307733, 300.7192874041216 208.17796786019937, 291.52439280921334 198.49623446174482 M340.16321650090623 244.7072005258242 C322.34064586364667 228.91984321988585, 305.2039739456247 212.87139033073646, 288.24885669211415 199.72661311224363 M348.85713364463584 245.20962590852847 C332.71382215573146 226.08141957810224, 309.28675584154826 208.46568495123003, 295.6311497919774 201.62034082267644 M349.1458440625277 243.4594395064505 C336.689090645708 233.625466719167, 324.96703571239357 223.84180011200667, 298.85682437242104 200.97700951667275 M361.9812747270853 244.84548834296248 C342.0247525959462 227.1381023520143, 325.81420276325827 212.83806702037182, 306.253411238019 197.35174116164345 M360.8766463317012 244.96838603824932 C350.1947505328479 235.26136029590523, 339.3149612857513 225.78467136951818, 306.54345870241565 198.94069896624598 M371.3881432712028 242.05766250737003 C355.63797578490573 233.2061547966587, 345.50088523992144 221.7408607907698, 317.2337603823071 199.43286084264372 M369.41856338965226 243.70510914630586 C356.0241507121525 230.76326044563234, 339.3508052378124 218.77752951688274, 316.55596980786237 200.43553156165058 M378.3120692150445 244.4024900165144 C359.76333442515073 226.77187846648465, 337.55969092195915 212.1632208936313, 326.7326066083222 199.63368534938581 M377.707631495865 244.02797674286398 C364.24276478090695 232.48187879401794, 353.40628065734376 222.66223720434675, 326.21894501477294 200.28550684344913 M389.16812192193 244.37297898923276 C369.8385131429968 230.2492710971807, 356.6325546398516 215.48414854432895, 334.18015498087976 198.46379553644155 M387.03830647701096 244.4328785724011 C369.6293955719096 230.1453689870361, 354.44401572983054 216.74116119471452, 334.583780066169 199.35897516973972 M399.41662707612284 244.19664323034542 C382.4094015951051 231.9159649754277, 365.9316173998265 217.13800032002143, 345.2679860766661 201.1242406687416 M397.38485687530056 244.19592612342893 C379.79632057296936 229.58310910941853, 363.23288515823145 214.39495306469163, 344.3513431081709 198.9665329566485 M405.57919977471715 246.32747265234653 C388.58296479685083 225.70459641419717, 370.6950294537282 211.90568122127323, 355.37601345590133 200.05222154302086 M407.67293721290156 243.2018417846052 C396.3998419376117 234.74894699027345, 384.4153069928421 225.7272371988055, 354.45894947791857 200.32735011745075 M415.73054309904825 246.5772963563597 C402.93922346610793 231.65685550277115, 392.6459163031312 225.0729458277556, 364.60882385834225 199.44680875263575 M415.8746094745614 245.33759112446177 C400.0275430748842 229.19435966188297, 382.6194373124605 216.71440817775823, 363.29795913893696 200.37231976419028 M418.5018127515247 241.2563746979328 C407.04163568688796 226.6172721180564, 386.7725369262815 212.2545857537539, 374.2079889201925 197.9985863513191 M421.1446928600894 240.83886895530676 C409.3237679043863 232.3578845748709, 398.12844967468374 223.5595440892043, 371.63354747190624 199.03612669922475 M421.1656500033834 231.71067991338396 C408.6698676326891 223.9065907963328, 400.5294499803509 214.30234134187427, 383.25906775272693 198.431366286877 M419.95712640474636 231.00859381787456 C406.71110644598605 220.2592715806782, 392.6174055432264 208.1864129778951, 382.90443024947535 200.70515387593812 M421.5059471823168 221.9596549680585 C410.87403002415044 219.64027966028365, 404.3177017897472 210.5541979587212, 389.6602397324734 201.14227728227075 M420.0936148948724 223.46767007630447 C409.28679464296016 214.85070974819638, 400.49660718033556 205.52520608571496, 390.8805642731346 198.36726342352935 M417.876459556193 216.9511557977801 C417.4613789067469 211.1306086803962, 409.4223440512327 209.58412783862786, 399.81036310610443 199.6738697342582 M420.30749980769536 215.15465247162953 C411.625972838125 210.03405246697173, 404.5577518620484 203.08973330617823, 401.19483431357725 199.60076490058754 M419.08265714471804 208.89547439192916 C415.5499253693298 204.37873053257226, 414.2167643152428 201.88569228789297, 408.39457863480914 200.17068588705718 M419.51190296068995 208.0260153462573 C418.0583826937645 205.34521350363323, 414.366009763488 203.56699196540444, 410.1978302203192 199.24898305670987 M420.3271671674176 200.7660686315697 C420.0443419600742 200.3002013789608, 419.9058817001187 200.15062969772978, 419.56675600700424 199.9688645224093 M420.3219404194758 200.6065761149895 C420.089435480683 200.43541183167463, 419.8663645231428 200.248458776846, 419.6383684484224 199.95276386150724 M419.96403478152746 244.04286167832305 C419.96403478152746 244.04286167832305, 419.96403478152746 244.04286167832305, 419.96403478152746 244.04286167832305 M419.96403478152746 244.04286167832305 C419.96403478152746 244.04286167832305, 419.96403478152746 244.04286167832305, 419.96403478152746 244.04286167832305 M419.0533390259478 235.62654339431757 C419.21298426888325 237.95730730138368, 414.89324804037113 239.24822888946505, 413.53751412566584 243.59040084114875 M420.42446188555493 235.5729532113224 C416.4858671223344 238.3665972157622, 414.7321586449969 241.2095878242709, 412.0414658363114 244.07734172936918 M418.16112675674816 227.19383856322088 C411.75955709271403 233.62916242480296, 408.1936314131032 235.90263213696315, 406.7161428868308 245.8137305656321 M420.129104405558 224.8806728049677 C415.4835693073341 231.69419733630835, 410.55637528252953 237.2725480628577, 404.6992601110494 243.8547917784707 M421.227175479589 214.39667659702755 C413.15413041323296 223.67674453060184, 407.4014388879522 228.9732526002909, 399.1294789832296 245.21148178742234 M419.4838659176241 216.8169849007558 C410.771944616366 225.34428806787253, 401.54926855249795 237.57370150257887, 396.58744436799446 243.25189317097565 M420.4458534156311 204.0324764040503 C415.30342602209635 216.37260985178526, 409.05738614458755 222.40136928521054, 388.53992573631075 244.73771279708575 M419.30180165250357 207.18883082999312 C410.3340531341161 219.0876750230103, 397.17618019142014 233.46158164530942, 388.5384225376596 244.78820716773245 M421.2363824412957 197.44461841388033 C411.09696111926627 208.33184113434322, 400.02339294342397 223.56389809935428, 381.2897803261097 241.449048956706 M419.6947413253185 199.2115815118349 C410.0053360294026 211.2357126085027, 397.78367717415074 223.45320619117484, 380.6978990979335 243.50011247364876 M408.6356805923452 199.04835733208827 C395.53661940650926 212.99299603744663, 381.77669229945565 227.83290649998804, 374.06934669190986 243.8833506094284 M409.7876016774507 198.14689144315983 C400.7690647591648 211.97884434797535, 391.0565913447248 222.40225575531173, 373.0508110077174 243.1719483041892 M403.0376797808476 200.88006051158382 C393.1755305197851 211.50058457207055, 375.7842065602231 226.66274157908703, 362.9570059435675 242.52016724465003 M402.3323789469869 197.98481566031657 C393.57224383145405 209.00241916815943, 384.5313972833259 220.6434651740129, 364.17308695216934 242.7883900464407 M396.3981299369897 200.90875539866403 C382.17450315658664 214.9870711424019, 368.3025691021858 235.01721179942868, 356.3336283700866 245.24612678756895 M395.19992355104637 199.50885115501723 C381.7951625190658 216.51736004309882, 368.7073991729841 231.51894700223855, 356.7840377235377 243.6036680149694 M389.4486953286276 196.4390167718904 C374.3584155055765 210.58329804586666, 364.63309385205554 221.13819123132168, 352.08742042272195 241.31814396526764 M386.86281154465297 198.48483559169279 C379.5881816399901 209.33024578496543, 370.5458509526124 217.6500593445629, 348.9211987591699 243.72728555126713 M377.674361746161 197.9709747385704 C368.98407087787353 209.33773723108098, 359.0882614936176 226.6623256761925, 343.87367049499386 245.49790124093494 M379.4248865516367 198.64276896287095 C372.3562917612722 206.76520563312562, 363.9839357811934 215.56549675919834, 341.8556528842727 244.68937688840495 M370.5084322595279 200.93932868317762 C361.4032558056035 213.705518233721, 345.2522368864038 228.70825094369383, 332.96482970296853 244.26283594847717 M372.94934377540557 197.99018061435638 C355.7850608889629 215.0064903919037, 342.53166631744995 232.38870495031293, 334.8273499369694 244.69282326407958 M364.1638365935381 199.4172029964668 C350.9035937223009 213.1941717799968, 341.60235306651344 229.0300158690762, 327.26967150474667 245.82550380325827 M363.2120898592662 198.16026227413923 C351.7574317750382 211.76928312203592, 341.63048369668974 224.14016580920924, 326.7466030158373 244.82039801328327 M356.0193319972967 201.36369334085109 C342.9901351190122 216.98342904675778, 324.23318570258414 233.55639994460938, 318.41090238142897 241.75985605715843 M355.5905630377508 199.34837324295768 C342.9082256719788 214.45691735377298, 327.63159102456297 231.86328191954436, 317.9544215797127 243.74936516590375 M348.72380319768854 201.82311969110455 C336.28449266693127 212.7249295626209, 323.2995067334235 231.82341336822813, 311.0622416389584 245.20184719142782 M347.8569900211911 200.40160495280665 C334.63273152295557 214.51040633301616, 320.9519702025117 229.27473487731135, 309.89646125021 244.39192524348186 M342.3829038032011 200.5808281787557 C326.3172927626088 213.1049447092005, 318.0151672077908 225.48664169440735, 302.06345900619493 244.9257280547345 M341.3758840735651 198.79486742867823 C327.86923040013164 212.6329807648526, 317.5894960804325 226.7244985252312, 303.0009439243744 244.26634492714032 M331.5312404436081 198.65470799448732 C320.89069562206544 211.4500463882348, 310.5390193802183 222.8706679409257, 294.5356303915527 246.2002362069649 M333.13379250043124 199.89957915127417 C319.16481960997794 214.6872295780646, 304.18329162708113 232.4455890997886, 295.7191084513178 242.99988690195428 M325.4057093337757 199.12988814330686 C310.1557913904184 216.46582704066637, 299.14327335420586 229.90158307979922, 287.1125643872699 242.98314966891496 M324.0642985089687 200.00711975080642 C309.4418822878711 215.08124312906673, 294.36619021908615 233.33175185003276, 286.81803197677567 243.08552574534838 M317.46049366782256 201.2598572586064 C305.0414297290904 210.17621308762014, 298.40058837204094 217.23712560188991, 279.65296449883493 243.6569153200112 M316.30725821248046 199.98672266010405 C306.1275342255503 211.7245650766277, 295.8923028342842 223.75250807138212, 278.8014558298175 244.61170983567183 M309.0177913227956 198.95236621554866 C297.24156262581744 212.4850435975993, 287.4386941699967 224.41273576791767, 270.7634268498806 245.67572778894248 M308.19195574407695 200.4005095573412 C295.66817123208904 211.84300498629062, 285.1344402493162 226.60624598971256, 272.13487288311563 245.55837185909743 M302.1948595921778 200.81066780948785 C288.5958808680129 211.5820203907816, 279.0099330434401 227.52231775296292, 261.838107245981 246.5649699687204 M299.77708168322704 199.72784652955045 C292.97031259889354 208.35649859577993, 282.86030072588784 219.82905057841484, 263.5606178673345 244.25304560728563 M294.7916742464268 197.44706668250996 C286.2470258518884 209.52117476679135, 277.5285643336651 216.99824033857723, 254.39252416690596 243.57411221535776 M293.4113237884473 198.30225575404526 C280.9903568617983 213.94828019785777, 268.02407784148795 228.55950261753102, 255.63917414663578 244.51600684054685 M287.7992487085927 197.5041564434667 C269.29081758468107 214.7012018633915, 256.4597851761084 234.35295136048654, 248.03661076379618 242.1711363411349 M284.96367650602883 199.56782839530965 C277.7091086621602 207.70094804161405, 269.035809905378 219.19796008154321, 248.2819050415019 245.3839499045211 M275.72366333557625 197.7923180754089 C271.2704789093271 210.02989644712648, 259.868009497644 220.79578078941984, 240.47464967294908 242.4181698881209 M278.64667470948416 199.59825660145572 C262.4369987990113 214.8682438326422, 247.9657046875222 232.95540957757981, 240.5881042966476 245.04699621542252 M272.386205699515 196.8180427065041 C261.48552516692376 208.52192065996567, 254.07111459356688 216.07152892405975, 231.92937920264862 242.3608388547722 M269.4675972559814 197.93111609711096 C260.24041455059415 210.83999749289165, 251.49605630553367 219.81569706592066, 231.27528043264067 243.6583404195959 M261.71464849919664 201.44476306315138 C249.43376617118318 213.09894292898403, 240.10307476123864 223.23912105322907, 225.450639034917 244.66822774835154 M262.84513044071156 199.61075403858322 C255.33530200886793 207.8612290130811, 248.240232555074 216.80861620778728, 223.62562438824224 245.44266577374262 M253.5896175618027 198.18351465514525 C245.31419831964882 208.64846016751846, 233.2723887208143 220.77483743826548, 215.80144379139145 245.6930451658733 M253.82674903822095 198.17542936226812 C247.3073372087594 208.2485865871712, 239.28054641190383 217.44483034909555, 216.03595447887363 243.27889970126554 M245.75767440128993 199.27964028038014 C239.86065297658652 211.13836327431397, 229.89568981076488 222.07067970585462, 209.36734384047676 246.4653831301323 M247.27879873867715 197.91744621677253 C237.14233489610578 209.35318951715473, 228.5532724647476 219.80320722108732, 207.23283857928104 243.6810441087488 M236.81855737830568 198.31365497194386 C227.37373078492206 211.15963629795093, 219.12718611170968 224.7788683345326, 198.88264003408491 242.4702214446664 M237.55907378950835 199.32913167658361 C231.42361751977333 208.3808094588256, 222.26251526487658 217.71426575270743, 201.4636244866543 243.30940701345259 M231.41991507442145 201.1257809966728 C214.20241135064282 217.3120084610124, 203.39037041683306 232.1971719808101, 194.83649748422235 241.46034779962653 M229.93893972975954 199.42172689142723 C221.76290879680155 208.58934777904778, 214.50790407678022 216.99364267363092, 191.83975966935336 244.0258462522218 M221.68398143058758 199.74265149709848 C214.46479259667805 208.39733547675277, 204.88380103371628 220.81230650852004, 187.39198844549713 244.27048248078268 M223.82001723702015 197.7597592092957 C212.54901376726872 211.5211567994628, 202.59124434172807 221.27463110747328, 186.15826736423733 244.6040519499332 M212.89055369810816 200.08549965284706 C203.81840534533157 208.09222573816362, 195.2945371439511 221.79506572670874, 176.4235385529517 244.36990089110026 M214.52119990016462 198.37533034030662 C206.5409632137978 210.03891534913996, 196.32890561725043 221.8930320817336, 177.89936614381415 244.44056198207537 M206.2453558612319 198.57243247657084 C194.88745653143548 216.10768670216473, 176.79741429783212 234.84887722403155, 170.2973973722195 243.18546839026794 M207.9753719820841 197.80063143435973 C197.69289163484567 209.6248966025396, 189.11920105338794 220.9101705476404, 168.16723368967178 243.2979954420017 M201.6484489939765 201.20569907730223 C182.53213172389758 214.34894645552416, 170.4109318447195 234.3551606092505, 161.17974794157072 243.04589680372334 M200.06164461944815 199.3695270271839 C186.0827341805256 215.19996890831052, 170.39440741305302 233.73131594916396, 161.58804504701106 243.7912108795324 M193.9603965598951 199.36945676078946 C179.47750153888134 211.68071956199424, 167.26772307639985 227.16205973461751, 151.80709762399547 242.74038936851588 M191.02279589140448 197.5313208747468 C181.40639941182357 212.54011053097383, 168.59833621220253 225.01744945169511, 154.0211176880918 243.80156262605843 M181.96196189477058 199.02622525250862 C175.03303426539873 210.31381423313982, 166.64940920230356 221.14428186447165, 146.66202144023902 245.01879359215198 M183.06657933846978 198.74560942368916 C176.4127690930814 207.85048044492254, 167.37483962599083 219.40865669632544, 146.17682454456912 244.96006916435906 M178.304794495903 201.02197722964894 C165.90763110450902 210.90127249947196, 159.29948229557348 218.5795296647992, 138.97697577826318 242.09031104577036 M174.85766641602416 199.2484811478014 C164.9905661722011 211.83311271483035, 150.83899348028058 225.42275003325696, 137.08285952927878 243.09057806482988 M169.73293952579547 199.04217834316296 C160.58291905312603 210.0959064902591, 149.7817602214154 217.73828918114322, 130.43710419522742 245.4411292041072 M168.87410993249972 199.74793731409048 C156.2633985037946 212.22195514764553, 144.8225999219746 224.44562998840655, 131.47278707554216 243.50238696918993 M159.13934894294448 197.53905835526714 C150.8367458780385 212.3880425626039, 139.1927920263279 219.9074723242787, 123.39710594957819 243.32356730904687 M159.8488381262816 199.73424667558314 C147.41725369822478 216.37035520583075, 133.33876947935013 232.40041585153008, 122.37421587083674 244.2950590711254 M153.9382381104195 200.51316389798288 C138.74632379355984 213.5418486259782, 128.80318334386783 223.86733161626108, 115.0281079275128 246.30871393735828 M153.03770012978032 199.0736407537095 C137.46106515891685 217.0397846121415, 123.40388922035507 234.94942026297736, 113.61542097327643 244.41684390502854 M145.7209060191148 199.10500815155987 C135.28390090363254 207.3692451522781, 129.2263972808211 218.22585018106437, 105.64875614098014 244.97732280378813 M145.68377409140268 199.3205404459829 C137.49738866184632 209.46612658928075, 126.96855081239057 219.28262819140494, 106.34905705396419 244.68503871879824 M136.3430112812537 200.66606447567298 C123.0266264937869 214.1783716831314, 108.59293081963048 231.2149044103219, 97.05682677361963 244.6777117657751 M137.65759025358497 199.58477074975087 C126.47973713490325 211.40371792657095, 114.15210034713873 224.72258283540324, 98.88549090642947 243.5117693726562 M128.79542969143716 200.7758910704478 C117.28532194170617 210.98135141557145, 113.4146633881583 217.02312204675835, 92.9187841301156 241.67303118647783 M128.98718469670914 198.80183653470607 C115.77175261566643 214.61186551336357, 101.36352139411215 229.7131950826916, 92.40928260418956 243.52963708573833 M121.72530376489591 199.75147422423478 C110.56711281390544 213.52099437788797, 93.43005791530264 231.93194911415608, 82.92519590217339 241.69699893284422 M121.73748415882538 199.53499605359124 C108.32244167309915 215.45972744436332, 92.3554086908458 232.7249659023693, 82.27287273583902 243.21245151347267 M111.95077846640038 200.6828882772803 C101.16914395473862 208.48144674097102, 94.01073018367826 221.00044608514185, 78.83187070496979 241.83378654440776 M112.100876238327 199.62354802854395 C103.3647630353684 210.92532766523567, 94.89346665648345 222.81048284834966, 76.95069447146477 240.0595186549729 M104.93896415986985 197.55163245413823 C100.57301906509285 205.61998153050814, 93.70635893165172 214.57530262522675, 76.69152673479086 231.6076861319369 M104.0247046413631 198.89925467441586 C97.5779171104584 209.0038617699053, 89.32749273220429 216.52008653770247, 77.32600080122585 231.82126527673051 M96.1426539150451 199.52485599058582 C93.07368774194691 204.32832371122805, 82.6856939001548 215.41684763705237, 75.79535152558775 221.58416222699452 M97.05081346371797 198.67142783423446 C91.31668862167693 206.6166385136402, 86.90494210065395 213.29661322425258, 76.87896250779876 222.35649014980348 M91.69154604310752 200.00178453409708 C88.12487651517989 202.3645528754537, 84.50735206345522 205.61194331669637, 74.97634985383401 215.102472618403 M88.61415197295527 199.09382690059425 C85.05155874301208 205.04364508346424, 80.18888465102098 208.06352394602, 76.19327493505631 213.59606125563502 M82.00907985743419 199.3585209635062 C79.78938085474685 200.660471175763, 79.02789812170252 204.22498096528778, 77.42324246501762 203.71863209963232 M81.33280648648723 198.99320586745404 C79.71943440802325 201.41945772370667, 78.29800054335817 203.13847819583745, 76.77431312437426 204.72166466243945" stroke="#a8d4b8" stroke-width="1.15" fill="none"></path><path d="M80.23959305316333 198.75503389820682 C195.84135278800846 203.16801890876403, 316.6217248099411 203.15543288327643, 418.8854793198503 198.4498494028471 M80.46962195310229 199.35008959383973 C191.51986703602216 201.41684645034496, 302.1352866995497 200.88851847231518, 420.8311158761043 200.67259865162876 M417.7087213007209 201.70441619173167 C419.7832746578719 216.52696680990434, 418.70192794662273 229.43690639129392, 419.1200295595443 244.17941846662214 M420.48222359510663 200.12223726494065 C419.0487382122957 217.4149272467993, 418.78781887911055 233.69664324207693, 421.24649668815516 242.95527954554856 M421.39237360355463 244.05194488293418 C322.6447967973774 240.50136551325096, 223.61602613657212 242.29931942770153, 79.75598841742838 243.20965266849845 M420.3529415510741 243.77941236568813 C345.29302285327094 241.93773026607715, 271.60126307014144 242.7575901158615, 79.80536310061646 244.3955214036208 M78.98469413155682 241.79935579956762 C80.93233763194851 228.06916088556872, 78.47138649096809 217.2232356644241, 80.47710100533544 201.73643765557023 M80.20569701142459 244.1966335221925 C80.13388105841635 231.1856246541947, 79.73285325211496 218.20046551396197, 80.59471764894188 199.11739671949354" stroke="#1d1f22" stroke-width="1.7" fill="none"></path></g><text x="250" y="230" fill="#1d1f22" font-family="Architects Daughter, 'Segoe Print', 'Comic Sans MS', cursive" font-size="17" font-weight="700" text-anchor="middle">“What is the capital of France?”</text><text x="440" y="230" fill="#3d6ced" font-family="Architects Daughter, 'Segoe Print', 'Comic Sans MS', cursive" font-size="17" font-weight="700">← matched</text><g><path d="M440.0768099465611 244.06445119783015 C440.0768099465611 244.06445119783015, 440.0768099465611 244.06445119783015, 440.0768099465611 244.06445119783015 M440.0768099465611 244.06445119783015 C440.0768099465611 244.06445119783015, 440.0768099465611 244.06445119783015, 440.0768099465611 244.06445119783015 M448.7549272543819 242.6993804957043 C444.48118481123606 240.76837489938686, 441.66217065258496 238.21017481943102, 440.61814915435235 236.61975832306643 M449.7989212563027 243.7736964772369 C446.2385939193502 241.6528553230023, 444.2346751172559 239.45135318703626, 439.9379695773168 236.10881482165692 M457.10337903505877 242.23662697432098 C450.16034667713956 238.27666559341972, 446.4384985668532 230.04858102040362, 438.5041479207839 226.90324879251878 M458.1459645431552 242.84761364195077 C455.2520096153058 240.26153957141372, 450.8768505341179 237.03691734154796, 440.0515641549636 228.8582712064625 M468.61532749301796 241.36514070239113 C462.368212602453 236.61567020748132, 454.6570382584497 236.4754110548432, 439.966643454639 218.9728021844578 M466.88253650757554 244.69840707822237 C460.43345627058886 236.75787226445405, 454.463402011154 233.06070322828612, 439.4755337409615 221.0087624147257 M478.9195091693292 246.9094071419125 C468.9640234229769 235.409141667118, 460.64314970049037 225.59916851927795, 442.491639361511 212.95283590315645 M476.8074305859507 244.51996303764827 C465.11710896740794 231.51565912130113, 448.6718559120354 220.93079745341282, 441.4810952142089 214.05365714818882 M488.37329939217915 243.12067921924594 C469.7615992239796 231.91537411695347, 454.2588481330273 215.08783975675686, 441.85514489540634 206.64725823374846 M487.88620018684617 245.0500846160791 C470.68731574180185 232.71254462758154, 457.6357610250864 218.00693578540657, 440.62906624916803 204.782325793941 M496.9437526823496 243.87166924823302 C480.3472853700184 231.60035951008453, 462.8272015898736 214.59886036658915, 440.59562313694056 199.400141749952 M495.37654669056826 242.95787936437486 C479.48465456396764 232.18168559978005, 463.97546156790344 218.4044860111992, 441.48570079964946 199.0129704861409 M507.65823778574713 244.23662692072003 C489.1309179101915 233.28210239984222, 471.8687839768122 219.1248046446063, 451.0706046121168 198.27293397752123 M506.2590489788167 244.46706937044033 C486.8021477820087 227.7171718724612, 467.36920597816766 211.3801454259553, 450.81785940420593 197.9549829974924 M513.1624336691779 242.54284308190051 C504.0793872483333 234.23104221802942, 491.0654642913213 223.36433619261373, 462.1665339334779 198.27472665214324 M514.9917095028517 243.44331427985784 C495.5899632972752 227.0857941377754, 475.2499776980494 212.44837331387436, 460.20032800818683 197.85302981619543 M526.2845914071656 245.25687662376092 C507.93096914229005 227.52125125282714, 489.8496345146328 218.60647852570335, 468.9894886046207 197.09449510497404 M523.6414022977754 244.976883724765 C509.51770074122726 231.25038692941928, 495.5175909483469 218.635692178954, 469.0142520587398 199.2748481122748 M534.5835427815298 242.07644474101895 C511.7692656126206 224.59773797695377, 493.5727688622411 208.97607039065917, 480.48593974736383 199.12474216785048 M533.4461887181908 243.1817375534746 C520.1852252765497 232.93450931292384, 506.1511620302052 221.09088184613412, 479.1885472659258 198.5281893559974 M544.6530878060166 246.1384723541162 C530.1074967373683 231.9023629235854, 514.4261016842232 222.23767559582285, 489.91723252277905 196.40166670442045 M543.7016902570284 244.4291311809585 C529.976659355633 233.29681121592705, 517.586760813304 221.79668880067925, 488.45152961851414 197.32099560803866 M551.1625373301171 242.1635873788675 C535.8620541912379 227.8924700861917, 517.7071545331119 213.23160089033775, 496.61496369141054 196.74281125565068 M552.3280671098846 243.53759755437733 C538.8846005407794 232.5317618787219, 526.3538580603639 222.22073011651645, 498.9171099540376 199.09137955642666 M559.2730138888847 242.51442563362858 C542.8845184772365 227.41449483264097, 526.1134463940379 217.75789877597305, 508.8609223021345 199.17274431302673 M562.4137584370677 242.82378183985662 C549.2623597700327 232.76306099918972, 535.1412484683826 221.58239988661094, 506.7438454914469 198.91303157641798 M571.4192621668134 246.29601701137085 C554.4383880685695 230.90275761466594, 536.3809698594912 216.68247297933755, 515.735825459272 199.79978277239383 M570.9279131496735 245.02587245445034 C554.4478132427512 229.7965884255277, 538.2766069579519 218.5215634147821, 516.3388974456774 198.13263312945458 M577.4481914177949 243.29231095831503 C568.2221951977868 234.4301194569832, 555.2992387821355 225.97954829254346, 523.3563785685029 197.95124292822769 M578.9182796167198 244.98299990661204 C558.0314491379181 225.22788705998144, 536.2585862778028 207.29173009799678, 525.9861785616446 199.34255099350887 M589.7541496436795 242.87098852850946 C565.9189578103415 223.25303140720104, 545.9791807217574 207.2062839161963, 532.9087377217562 195.98092039154167 M588.9062525566105 242.52053139778246 C574.1877627095646 228.38091233681035, 557.68188574608 216.2612851658718, 533.9584487318332 197.01043167292707 M596.8427388836101 241.85419902671794 C586.8606426814554 231.34674955997875, 576.0776339523778 223.03413213500704, 542.1122504616613 199.11671785676688 M597.1560479365061 242.811608897184 C579.7977995646778 228.6917680869098, 562.2731903373234 213.7433125403919, 543.269069323614 197.50382771081158 M609.3053062583681 245.874384367478 C589.3963879505997 229.85445838924187, 573.4702099379531 219.45360177603285, 554.6625826065643 196.59881803328034 M609.2569782378292 244.4216361177708 C586.8940990989842 226.77115876276073, 567.2062840829137 211.21837503569242, 552.5697003256329 197.8117088682935 M615.6391729344225 246.15364291554667 C605.926402159965 230.9624629189465, 589.895310717129 224.98864381181056, 564.0256530755274 197.2545673813083 M618.1007349065783 243.478276954638 C606.7002231971585 234.63909184618274, 594.2972514027267 223.8218322817187, 563.7561013917506 198.386348390824 M625.8838959943969 241.57684069307092 C608.4557657582855 231.55118528073638, 593.8053007733546 217.7459815522634, 573.5971035429367 196.61367808171673 M626.5619260624187 244.32485264587106 C609.1856069609271 228.46423246690168, 593.1270160910104 214.77719493023542, 572.1831355503381 198.33090984832103 M635.2006978471198 244.65108134256846 C621.1385837330922 230.43056309959476, 603.9767614123995 215.50184820435152, 579.3854885843411 199.92977399342098 M636.1143046314901 244.76735025511772 C616.8181154304143 230.69671037799748, 600.5891491203881 214.55154133235246, 582.2779419748884 199.45991677810008 M642.9662565563367 244.4050919670966 C626.6771670498775 227.7622217210065, 606.7329599520283 213.90798166827523, 589.4144043358293 198.54436093528906 M645.5915819457744 243.59244917767305 C624.5894756832245 227.3899488554576, 602.1784481561299 208.79586548139093, 590.7612566571586 198.23818609840976 M656.900521018534 246.19507663335955 C633.835159124504 229.20934201167952, 616.5496803461068 210.28140892334562, 599.3177089059043 198.63985091892926 M655.0370930945887 244.69952991092555 C641.0068946648399 233.92667037332853, 629.4914657672133 224.96552242667275, 599.2079401780283 198.86136596841143 M663.5617321317065 245.2192741960104 C653.8307498775132 232.21700428640318, 640.1843491981591 225.18116855656652, 611.7677633806036 198.80429247643787 M665.4579334575873 245.06700187343978 C647.7801044708121 230.19389752642948, 631.6791588818094 215.78752079886735, 610.0046157072946 198.51771452872194 M673.3432383173374 241.92038557432653 C658.5675920345415 227.41252348854297, 636.1950105598831 214.03455873363347, 616.4891129326423 196.22002943111923 M672.9330354007961 244.78642981120743 C653.2722079857649 226.71023984197603, 635.9187878906067 212.25726942907048, 619.4059317637544 196.79641272832734 M683.7621487060206 244.22684081662797 C665.2635282037669 231.49214519863048, 651.0613597720615 216.09660254947423, 630.2304355484586 198.80651740046164 M681.8756015485008 243.83824633077234 C661.979872805803 228.2451186161052, 641.8821835276037 210.84949318665826, 628.2511748440107 199.0124179062874 M690.9225293882703 242.08103563823357 C675.6496236393953 231.80183387829064, 655.4214776195331 213.8125029759796, 635.3475912892548 198.6675110762798 M693.0756357190546 244.31515716454106 C675.4936504447021 230.41398568415065, 658.1231713150354 216.89803234657163, 638.9465903459442 199.11805579330598 M700.8805797537709 244.44376895914428 C683.2922918416302 227.97509377423953, 670.1570571900949 218.86579720397705, 645.9962729538909 198.63688690969806 M700.6585246171877 243.7157314224174 C685.8026457154665 230.2196343434989, 669.6010262113518 219.14512704050756, 645.6695338080034 198.95062098133337 M711.0494252079989 241.70957444093483 C693.2378701459547 227.4703482569024, 673.9686351981381 211.8096191040392, 654.579720267465 197.09916876728948 M711.6356153579769 243.84164735001775 C687.9840998657891 227.10105831385525, 668.001565695066 208.2961172997509, 654.9166374583156 197.43188194139051 M720.1155244369664 245.1243081717207 C702.3072982522211 231.47430052334045, 685.5893168262309 217.47984180268992, 665.3386176269811 198.2621901650292 M719.0642967860198 243.28982177272792 C699.6485493515484 225.96268367441493, 681.0922799046812 209.57138820275853, 665.9581650682411 198.86640491165943 M720.3580057788606 233.92485859319746 C707.5616985883577 225.14800155977306, 697.2027211598681 218.60976115469398, 674.3984383982179 199.3672895478704 M720.7431951233568 235.31556078127738 C703.172216129523 223.0935637369076, 687.6754449529348 209.80898164586714, 674.3780945590397 197.0551314990514 M721.4253353992287 227.16479547189635 C706.8960147082387 217.2728195098183, 697.0127180674035 205.8471067772922, 682.0837338709646 198.2438617555674 M719.5844807497409 228.01960743037301 C710.1167319973508 218.72839801569296, 700.0439949152027 209.653842925733, 683.4190007575122 199.44591254106243 M717.5359376965685 220.9576220646459 C711.3902217252704 210.4902546996281, 701.6085142144045 205.61595091569498, 692.0964859205345 198.62154421055638 M720.6942312252777 219.35409433715574 C713.3880999074769 216.6751176641905, 708.5278546390476 210.87194089381612, 693.546020358004 197.97280766916037 M720.0279933068126 213.91368186227442 C713.961220666887 205.33941781787007, 710.1383251113729 201.07718261671587, 702.9855069154692 199.0002760518084 M720.1217455358078 211.3055087617077 C715.3351255284001 210.45200566234033, 711.7087468501705 205.4764710122386, 703.698300049589 199.15378456379585 M720.0499417104713 204.44282024977784 C716.7298189657981 202.2474001313716, 714.2575872884165 200.27455990630088, 711.7312778740486 198.7576906026558 M720.3529156764122 204.9194017021299 C716.8486589029405 201.9283670808851, 713.5757742054024 199.63254555701835, 712.6286998640262 198.85680083904123 M720.069270101069 243.91744710819154 C720.069270101069 243.91744710819154, 720.069270101069 243.91744710819154, 720.069270101069 243.91744710819154 M720.069270101069 243.91744710819154 C720.069270101069 243.91744710819154, 720.069270101069 243.91744710819154, 720.069270101069 243.91744710819154 M719.467084459076 235.74782926089932 C716.6876352327978 238.42506314820167, 714.5191445184877 240.58014689434484, 713.7144578306651 243.84950327560358 M720.2750086342106 233.9597837811931 C717.3732046951353 237.6788576026402, 714.5819520417899 240.44162932185176, 713.0029319874437 243.2883105630418 M719.4452012797531 224.28622112880794 C714.0499195738372 233.90303809090219, 709.7984263989905 239.80324691699184, 704.5599633206698 245.21415939757782 M719.2840287172867 224.34169596667647 C712.3151991605981 233.46888733139664, 707.6889163888167 240.31215325029885, 704.3996218523462 243.3957844070778 M721.8734881946154 215.38283545737778 C709.5848365751675 227.97448069520135, 700.9562791553806 236.15327525197443, 697.6757654754033 246.3881777606519 M719.5501898308175 216.7564471896607 C711.8133246711762 225.5635643145953, 703.1497924764162 235.8021901872897, 695.5417899574363 245.09026430119164 M720.9806706395188 205.35319348775272 C715.4234423319293 213.56517714566104, 705.7477217631204 220.022208257612, 688.4637326857222 245.10118463196926 M719.4658656293051 206.60412687711 C708.5577492952408 220.4936443147192, 695.4741247673055 233.91368145633302, 689.2425864716454 243.27256036962152 M718.3935753545796 201.15636399040835 C704.4566739029443 215.8040626905617, 692.6403824749085 226.04238571813895, 681.328609475682 245.71528467675026 M719.0604767925433 200.29825377366947 C707.0078209281118 212.95301677060505, 695.6897509999945 227.20405710500734, 682.3052144608995 243.10504033133873 M709.1657257890132 197.02230433030064 C700.615526634644 213.35080702718517, 687.5320038119532 226.6208968746392, 673.9766427086361 246.24369808381002 M709.32848647319 198.29396069491824 C699.0843487620757 209.98810547452453, 690.2261209849289 223.4791086144372, 673.5460039510323 243.97296968241545 M701.6956649125273 199.74155264491836 C689.6155440262271 215.97193866316877, 675.0373427625192 231.72558310597196, 667.701082499968 244.45596060183377 M703.3666945503486 200.3829471091615 C687.5626241406018 216.20172043395257, 672.9960433916735 232.49053321918245, 666.4584634791061 243.91801447594702 M696.7333769121894 199.4127568845187 C685.3115886202925 211.22032527102016, 674.9738130544233 218.84891439609254, 656.5548119279736 243.91185841648095 M695.5770438528499 199.58318218062342 C680.1058297369249 215.28214844609315, 666.2820411507478 232.78471742430037, 657.272423488975 243.36484306382087 M684.6743435082519 200.59244053827913 C674.5786370611606 213.52176980976103, 661.6069747743423 233.80545088069067, 648.7213001633718 244.2649368985567 M688.2499649105182 198.95964363944367 C676.7050202894387 209.72085932278054, 667.5642781505164 222.53581116148047, 648.7404989961753 243.4534695844974 M681.2540718677662 196.8523943612869 C669.5358144875141 210.9192834966606, 657.3192629701963 220.8365825160425, 641.8245000606158 241.18981907480313 M680.5087588525581 198.6712032060979 C672.0753179822071 209.48449287155367, 664.4115866196838 218.51130817613458, 642.4690103878296 244.46215012976586 M673.0930558738917 197.19159843680623 C656.6531843069982 215.19174139894693, 644.523207396305 235.2760769722888, 634.0348472411546 241.80421093540664 M671.2219262047387 198.06932426486088 C656.7059961065396 215.0138136492978, 643.8345100985091 233.04801129864774, 633.7616489204457 244.3534027464205 M661.4873247979291 198.7982640100593 C655.806997501448 205.81336295072788, 650.4142977223112 216.0734309848806, 627.3785094711918 243.92243590151838 M663.4278032197118 199.3980090502638 C653.1290865810797 212.43561207489142, 642.1043802634325 226.63726812107276, 625.0697928974672 244.36571290180044 M654.8031092404174 197.87765660426803 C640.7262090568827 214.4403802588154, 625.700865696242 231.41707661981536, 616.2790689534263 243.78419886199987 M655.3527415993166 201.14787653134036 C642.033992450167 216.6809186386446, 627.1256626831486 234.44549113745606, 617.0611128778847 243.84776519441726 M648.4843472539809 197.6938503340821 C639.7116219791811 210.19566488516728, 628.182387146441 218.47210031712618, 612.2039648586178 243.48771401604537 M648.2782373641354 200.3250937686393 C633.2615827896146 218.9505470338898, 617.1662500826375 234.42141905442892, 610.495719192941 244.6703272334773 M637.662557677077 199.5912574162014 C629.3328725503065 209.6386117914297, 622.3277277921117 225.9904332384326, 602.2815222496528 245.27415086055979 M639.2709910758382 199.95901244238155 C629.8975497525169 213.1853422613375, 618.5241684581204 223.56214621830952, 603.5004458659762 244.90484832420333 M630.1847281287704 199.83935641230718 C617.568178083667 211.3808693504602, 605.3882510512091 229.36505430334492, 595.6046689499875 244.6608826517461 M632.6660738961941 198.58877254226118 C618.8190723289406 216.26108367763368, 603.922455622753 232.46798722845915, 594.2376058393368 243.26385796282432 M621.7211731250592 198.75093792054184 C613.5659754933067 212.85544604447435, 599.7639203819848 229.87029913737965, 586.6645189592829 246.71771377022012 M623.946924352106 200.231596132454 C611.0629266877744 215.98585502988354, 599.0685301375001 228.63755890683794, 585.7091509045704 244.89592213241804 M618.1355643450257 200.4280209164055 C602.9793722986461 215.65568412877047, 592.0960430645827 228.52562611671044, 578.6816848423639 244.81450879639542 M615.1504867046874 200.3690071677551 C604.5558822171683 212.59093323870366, 593.3669786487734 226.16386684152855, 577.7797685523822 245.0387315958962 M606.5748162653131 202.1013960670147 C596.585882788763 209.99633095405989, 589.5893792783774 225.23555817273967, 571.9421600840199 244.1813325422518 M609.1945647776957 200.007437534073 C594.1161269092819 215.2744514933408, 580.2079387659566 232.38613036173683, 570.598052693921 244.30783710912593 M598.6672933494096 201.67612197286405 C594.7051438642377 209.09769423704157, 587.6213392288906 217.0854385500194, 560.8072226294545 243.91304252968376 M600.9835321163818 201.00457062317963 C592.8178188940896 207.89717862104933, 584.2166003623132 218.06784938077527, 564.1598515304166 243.76692357592734 M591.805772464442 200.39175096624436 C582.762327570247 212.55939649220988, 576.1458777212753 221.61790563875212, 557.3968890147532 245.28352746397056 M591.8650197189498 200.91641332132826 C578.1524301101047 215.11591633412596, 564.8605463742481 231.62089381332353, 555.4611631143258 244.2684245965696 M586.1744842639081 199.58245428293174 C569.7007269811012 216.61629335035514, 555.9502894300795 230.34388698346112, 547.7007238348767 242.15263608718516 M584.0854523650665 200.89502893738165 C573.4292668752952 211.31084300617238, 564.1064263220142 225.5484950928431, 548.766738965282 244.06189237161348 M577.7013023865563 201.82492540307285 C565.774722025135 211.73504511788934, 557.3600167317577 228.7295030413164, 540.9859751531417 243.69652200284642 M578.3225035708679 198.56606178165308 C570.138788962252 209.79074181707512, 561.2762059061236 218.30396910488665, 539.1865678870387 244.5068768546537 M567.6441018955456 199.2062014337151 C560.6381741013367 209.75115462622293, 551.8230429014626 219.6956772994593, 530.0399232688438 245.2642093131353 M568.1552025136994 199.23753711569518 C556.2222266072271 216.17648703556478, 541.7369215470032 230.88532008786882, 532.7561503314689 244.14499613435123 M563.6591177464717 200.40487030278814 C550.9301700018887 214.8011621020232, 539.3750098171703 227.10309392442753, 525.086030840263 243.6895152576513 M561.8344543047648 199.98743297267265 C552.2943938775416 209.3752148546445, 544.6797342936287 218.89991810200164, 523.160232926791 244.27322520978228 M553.2563203386014 198.3084570187867 C543.7310165686687 207.92475168649517, 535.1314717522832 215.87051041826666, 515.7025755438565 241.714306225679 M553.9522597121288 198.75678210654178 C541.7401969494662 215.61338617827033, 528.3178463532337 230.49780574617583, 516.5388735095834 243.44673822427646 M548.0380667318101 199.23296943805568 C537.2053236875463 212.19051422212058, 524.190631217244 223.83168770831955, 510.0027586141232 242.8908730769996 M546.8712944199581 199.77639757905172 C538.089768684177 211.02460300429132, 527.0739381572537 221.8813654465008, 508.7099704912186 244.79798819293148 M537.2901214270115 199.45726229461846 C526.5887640864349 210.01994106235725, 517.3829020091988 225.03138276754567, 499.3306762007372 244.37777100140113 M536.8617065577693 198.75583964539146 C530.5615291560106 209.65077432188784, 521.5850910607423 218.68751706858234, 499.5517050044966 243.0135607875733 M531.4530603957522 201.3763620137274 C520.8566075776712 210.439126814147, 514.2903179333209 221.71596162618127, 492.55233114497 241.45336331905352 M530.0065286642341 199.90286755322185 C516.9678909351435 212.81309742366074, 505.33417030207426 227.89750101801815, 493.05624549099116 243.4480195389394 M522.4513006381713 197.14859742356856 C511.6736085860299 207.91164171535698, 503.84238758551083 216.23947789818604, 485.6066675667928 246.21945310975607 M523.0322191081741 199.34546343847563 C511.3475138922056 211.24711719590962, 501.2093373169076 225.93198450215178, 485.32173115142155 244.95142221968234 M513.063981067498 199.29709319829954 C508.4132399019287 207.60413624746877, 498.65711716975073 217.77027092618016, 477.2831249225283 246.05183598489558 M515.1597843616968 198.51234898620206 C507.5818878561251 209.36591148864528, 499.13990685285376 217.0458536417253, 477.7690645014124 244.40067821037024 M506.86724144088777 201.86183762201838 C491.1657454202942 217.5629404164249, 478.6559399700606 232.72500061586797, 470.5283849391602 242.2180991752294 M506.6400784049914 198.8406273276985 C491.43223432854444 216.27650747377896, 477.39109199921256 234.25271084901016, 470.58348922812127 243.3583566496796 M499.67340378660356 199.8044027465411 C492.15347873820673 209.59226971937608, 480.99229741553347 220.97861966649222, 463.5249901852707 245.88536091818008 M497.8241993530706 200.00078291334307 C485.9465526760623 215.80531031217296, 471.0908246936952 234.76437076839153, 460.4739130691259 242.87187395041875 M491.4649599148554 197.40171892750442 C474.19733732827746 217.29608512417582, 463.52012916234116 235.3448466588553, 456.15914554578933 245.09485283037156 M490.15454295085334 199.91420926544336 C478.5476496319343 213.9915740624558, 463.0115251815499 232.18164042301729, 453.3462675391117 244.86219020454786 M480.9193933095052 197.229993366464 C477.1929692514992 206.75061189456608, 466.7006021943444 215.92495139089752, 447.8857527803133 241.49421473181047 M482.5173413047753 199.9127090114707 C468.91580399573235 217.4196167495812, 454.4852173528972 234.04268839505647, 445.2090466322724 243.6320831412598 M475.0117050486239 201.75704297142252 C468.9076035327246 206.4132837680021, 460.7932668116485 215.7474012126581, 437.3759964675013 240.7859766723039 M476.4664449478018 198.72257196011964 C460.8575321938607 215.17920035582884, 447.2446592410555 232.18507671060345, 438.3562216604053 243.087983511527 M465.44320763471285 200.22374733767197 C460.81881095275116 208.9055096491057, 455.08830184576834 214.87115507183734, 440.58927946739874 234.03887074300874 M466.7868772087066 198.67874676291416 C458.83085720091236 212.60172062059434, 446.94636785810013 223.470958613807, 440.54011252426943 232.43125987421973 M459.55127589262946 199.14145706402908 C453.4041744086726 206.6890956346054, 446.3340007669042 212.1844559133457, 441.8569224010434 224.11458365852263 M459.0735556473777 198.02233416878488 C456.09497744312995 204.8403672266702, 451.153297798929 209.28953563619967, 439.63790900424203 224.27191331794674 M450.19417634156594 198.69186254417858 C450.4390011266626 204.92738079471647, 446.97961986490435 206.77213074846722, 441.3761950455415 211.52864670907096 M453.0010603537371 198.34575043997202 C446.89408035598325 203.69267233566387, 443.27606859123716 209.82014830776126, 440.1926638780513 212.7173374565788 M444.0699585047561 200.05697797153286 C443.81925010550054 201.47774638801548, 440.95795739332834 202.65203194040177, 438.89533361642737 204.7703435448868 M444.2637090402314 198.98336790113385 C443.122563690787 200.39031950648996, 441.27150570959844 202.7084719754317, 439.51565431773906 204.62682228137524" stroke="#e8d48b" stroke-width="1.15" fill="none"></path><path d="M440.21970623391763 198.267051210748 C509.4586833145517 199.8353072953488, 579.9062132325903 201.28857523107075, 719.3034642264403 200.056797763903 M440.24785259316184 199.71887650843703 C519.8798388444844 198.01618680011137, 599.147629825532 199.33040167615877, 720.726098205426 200.27292327639086 M717.5821434176737 199.39743595384923 C719.0796474233982 217.3102932752303, 721.2875960680232 232.61924510729193, 718.521551537695 243.12094811907633 M720.930604375336 200.46658070521264 C718.7935467386146 213.48033855758467, 718.2129022598677 228.12230771833504, 721.0051460435315 242.8228308223784 M719.384897649042 245.61889982368447 C615.9470332996264 240.58523164018237, 509.95590506181054 241.1419991989953, 441.0808415791326 242.79106784890487 M720.571109788909 244.37871325707087 C611.7280723587289 243.03883332021738, 504.7713204948495 242.901042525749, 440.1864989742127 243.09222106529725 M438.38250501729726 244.16317273302354 C440.5451745273159 235.04849232466245, 438.7462711761247 223.66277649271714, 441.59287174464407 198.15903560346726 M439.6199670554387 244.15316225271033 C439.40471456259996 228.69458664076694, 439.191384978356 211.49990957629026, 441.0521363086962 200.48366291068032" stroke="#1d1f22" stroke-width="1.7" fill="none"></path></g><text x="580" y="230" fill="#1d1f22" font-family="Architects Daughter, 'Segoe Print', 'Comic Sans MS', cursive" font-size="17" font-weight="700" text-anchor="middle">“Summarise this document:”</text><text x="40" y="280" fill="#3f444c" font-family="Architects Daughter, 'Segoe Print', 'Comic Sans MS', cursive" font-size="17" font-weight="700">nothing new to compute on the matched path</text></svg>