<svg xmlns="http://www.w3.org/2000/svg" width="780" height="320" viewBox="0 0 780 320" role="img" aria-label="Cache-aware scheduling keeps hot prefixes resident"><rect width="100%" height="100%" fill="#f7f5f0"></rect><style>@import url('https://fonts.googleapis.com/css2?family=Architects+Daughter&amp;display=swap'); text{font-family:Architects Daughter, 'Segoe Print', 'Comic Sans MS', cursive; font-weight:700;}</style><text x="40" y="40" fill="#1d1f22" font-family="Architects Daughter, 'Segoe Print', 'Comic Sans MS', cursive" font-size="24" font-weight="700">Cache-agnostic vs cache-aware order</text><g><path d="M40.28932852305661 280.2427754569859 C40.28932852305661 280.2427754569859, 40.28932852305661 280.2427754569859, 40.28932852305661 280.2427754569859 M40.28932852305661 280.2427754569859 C40.28932852305661 280.2427754569859, 40.28932852305661 280.2427754569859, 40.28932852305661 280.2427754569859 M53.793621147688825 278.3597233428677 C49.9710245614665 275.7990306158253, 44.101389640912714 273.7304103388514, 39.21324342389472 270.26791647031945 M52.09664257729376 279.108046272644 C47.82103126278859 275.80268037157725, 44.57757951738443 272.443250707171, 40.18842290601284 269.6379876578265 M66.08112477713865 280.74268143595543 C56.88442822169483 274.868786341937, 48.384334063342315 268.326177909301, 38.58302327441799 260.49712757697006 M64.9493577863113 279.4856794065906 C56.00354917394405 272.6469345437297, 49.00554461574376 267.089513111032, 40.21085284224511 258.9098680126789 M77.06299507293436 280.6590967366364 C68.48701860559527 270.3071230057702, 58.615931879604446 265.4770862696845, 39.95004567964089 248.51399457015626 M77.1062746624038 279.5373707356538 C65.25218913622659 269.2746574162997, 54.669428659149176 261.65849627603325, 40.054598529206864 248.1903765758889 M92.05654224765789 281.0956508793039 C70.70089553241007 263.1322954199819, 51.79172748713946 245.97992191692566, 37.897806343564405 240.6008753032146 M90.62778655355811 279.04772271950463 C73.81882411674674 267.86008664670084, 58.42135483511146 253.2532541744342, 41.04209336534891 237.55158461026315 M103.48618881606345 280.78980820764474 C84.8858324824459 264.3062486547974, 67.83967841851228 247.50042268245983, 38.310552139858345 227.59518446632555 M102.6551762374675 278.5519520708423 C84.43759932969895 263.2997394909478, 64.36828290113083 248.7455238797846, 39.74787666151635 227.89458472455462 M112.28253865685292 282.52907453915856 C91.53066695104708 258.81189421493514, 65.72308348548943 240.0917276441052, 41.60050023604697 216.76739851401817 M115.39133252066698 279.1029684403803 C90.31048630129209 258.54072228554276, 64.34694359109132 239.27191374776507, 38.90275291718592 217.7543696310832 M124.69745978205786 281.145019305295 C107.59787264237751 266.6597638876246, 91.46518134984044 248.51220283772076, 39.95162155245801 206.9268661660554 M126.64878153117802 280.9004456392684 C104.88586760455165 260.8272680194955, 82.60909186221879 242.57367746045907, 40.77427658584004 206.14311537563873 M140.98253046113246 282.2767004233956 C109.22990036163459 256.2086593370727, 78.19074936038515 226.84440732630463, 38.41425183638627 194.10819230756212 M140.85709010480954 278.84877170124236 C100.57351727475486 247.75315808995705, 61.030863479031986 215.77881077109305, 40.782960796353706 196.86684268872398 M152.85298180624386 281.36014541296794 C123.69229710568277 256.0875489226043, 100.28697357699147 238.04765498942086, 39.128838403744346 187.94004113778234 M151.17696345917128 279.43712192853485 C116.0742871114314 250.6728783318209, 79.88247015778357 218.4327632198158, 40.49798082516322 185.25808305942303 M162.72325338627792 277.5279208957252 C131.0329175617456 253.8428838042601, 97.29602803541239 224.35371282193196, 38.88971073052719 175.50558691239655 M163.65858418517467 279.3323961792057 C118.37960135801465 241.81687303715577, 71.03085772029199 203.01360465316628, 40.84063034640734 175.95583027106804 M174.39274473642996 281.71138224788666 C121.66134128682391 231.38340633381569, 70.57517887472858 186.58159534771357, 41.60320862863782 167.716743603183 M175.3257215922519 280.6212990122621 C143.26853098668025 251.74437513452477, 111.59082181405034 225.20762535500344, 40.37379711803501 164.4710356138069 M189.94056930794497 279.6523775052828 C151.4811703341236 252.04711890266796, 115.29004895920094 219.87835894645434, 37.387967629572806 152.3897963960256 M189.05097620132753 278.9149616486704 C133.6444707781548 232.1847194374854, 76.04091607960109 184.15567541974562, 40.21328910836756 154.3119540898932 M202.82090690159157 278.9125831593816 C145.3783668735875 233.6261602058843, 91.3616805330936 184.38624366345482, 38.58266949975675 142.37822040001998 M201.21538913281856 279.8990426890255 C168.0939468041339 254.17236135543016, 134.91953797195686 225.72117030174437, 40.01126772874269 143.22456216513717 M212.14057970963873 280.34138389846186 C178.2208682007437 250.6916502367013, 140.8173041995821 220.9347611766351, 39.81488257932684 136.20300904161954 M213.59646626082346 280.9890455793459 C164.51044283902328 237.6083724556364, 116.4364255823939 197.647219753596, 40.74529450805572 133.93140632746952 M225.081766472676 278.3694439741103 C183.90977717101958 243.22950154520615, 140.26121984136398 204.08957839876894, 38.33231463698607 122.24566560940629 M226.24584662749345 280.93101404345924 C165.22722901007725 226.45807415487596, 102.81218919286626 174.31321449520922, 40.26293813026309 123.8361356353713 M238.29742055796572 280.4540647584495 C192.30085985805675 240.59028326256472, 148.296631877787 205.0388032486619, 38.417795836673335 113.8421882608034 M238.2486078853801 280.0063106552192 C182.10702460823282 233.8648309830554, 125.98218517050114 185.54162759281203, 38.92467513628254 113.24075232921848 M253.1609879030103 280.51166506235046 C173.39717756047247 212.1658839718423, 92.81303814439623 146.12888148221518, 38.738412808781256 104.47658811319666 M252.76843670565844 281.0103532799691 C173.70481327496674 212.55170326700207, 94.86268420114077 147.10625972189902, 40.01757012280941 103.13565164498726 M264.78997473257647 278.37255705688636 C183.73021323132878 215.72073414668534, 102.52742950818252 147.05018321407627, 41.03655203229622 91.54068577406719 M262.9863403364033 279.50495791750996 C205.66905975369548 233.0164424940413, 149.51265346741843 185.4701128742143, 41.01550442912641 91.61345399482123 M277.7892333297198 279.62254483243066 C182.71747317527192 201.87135659189332, 89.79447047086076 121.91768058574932, 39.091961651919696 80.77793912159659 M276.6525610522671 279.804945554204 C192.15822039482458 208.80596457919785, 108.85066277521096 137.9531541150588, 39.10994941075513 81.09131344681617 M288.5979009531199 281.5115787793061 C206.88915782627 211.54185959212734, 127.27122720981542 144.1174155878301, 38.043844309021004 72.04109267316275 M288.72403648085714 280.429088881629 C202.06812639726462 205.03112972723684, 114.1520488157823 132.43468355479206, 38.822854174466926 70.00690353735199 M303.11201885618954 280.738525173236 C211.61969725491235 201.27768832517387, 120.23393856673968 125.29005792615834, 49.720151989567825 70.5519337147087 M302.01695827916996 280.4949151371279 C226.28767774860043 213.76790855882243, 149.63622063867052 147.6056533891785, 51.43117782208067 69.6009173288467 M314.95637032846 278.2682923385803 C226.8170854340638 208.49269299843255, 138.22946977362906 136.33594907783325, 63.92452677069912 69.16299420763832 M313.519329009325 279.4648170351896 C239.5153408203527 216.02476810888743, 164.77737443854227 153.07940378676696, 63.99141097763715 71.04228966978526 M325.0212757573731 280.8575565042007 C267.38343967409287 227.53371258653706, 207.0076289726482 176.7568434292017, 74.20055351602657 68.48741411390799 M325.7895737014694 280.5626559079493 C251.41444699633337 218.69362458297303, 179.25718702181513 157.64842798613526, 76.47940836932419 69.47402016819274 M338.51398236543554 281.3079531876576 C276.95462328803484 230.68207842593964, 216.65059741423266 175.98734546571006, 89.63422382960349 71.19295585869573 M337.62091831149763 279.81250873977336 C277.78852117814426 230.51712168844676, 219.1613850923396 179.30178609023037, 87.96530591676931 69.5854196326668 M350.8452952524099 281.5770250883309 C277.7700755922541 217.41184626349772, 201.4783282152753 154.9142348907011, 100.05172910996866 68.93527982134518 M350.7346666937556 280.5548592639041 C258.42913003969386 200.74935845067844, 165.68399700330025 121.04205624289735, 100.89525996628755 69.94916116360488 M364.4183997027486 278.54246346676655 C310.87862971860454 233.6830336942847, 257.33593086674404 187.2895803581536, 112.5620101024357 70.6326271382232 M364.7407867107745 281.00459466856785 C290.5511156311693 220.5212751536317, 218.0673058089243 159.102686257382, 112.97728835319897 70.32982747280339 M371.29373600171135 274.84461491845747 C286.22749648110425 202.5266202301302, 201.4183372475398 131.1029258115576, 127.18837885961536 71.11132836526617 M371.3320938368156 274.9691698010792 C276.07599537875313 199.00493157894547, 184.61613241705788 122.00685585264111, 125.61398417924929 69.97979363431705 M368.89705476647174 263.2507403197092 C305.96621468274816 210.16791401935382, 236.86241546375453 154.81731112409923, 139.9808401352822 70.69184397974075 M371.17310980633056 265.0476470980884 C316.53070929406226 218.59223844945313, 262.776831223216 172.67960739259453, 137.57164320734708 70.97258287950456 M368.2868533661956 254.0331410372535 C320.2511692035881 211.25222901682824, 269.37367468866455 169.7513384030686, 151.16337090227626 70.19922065419632 M370.393677475411 254.3006329139355 C285.57906342346945 182.92994334341623, 200.627770587514 112.73801875481007, 149.7887046623638 69.14360523671262 M369.9950042726384 242.93884766345352 C299.5268050028938 186.3338450493871, 228.44729168185322 126.56228340043627, 163.703154475352 72.01990821980725 M370.8353455196767 244.02311166101123 C304.2512674795225 190.24162287176907, 241.1139054562371 136.38667730635217, 162.4849428157442 69.63099249872707 M371.34231740962167 232.24251595079397 C326.5091443572309 194.46367094894256, 279.5986860577218 155.23670429127372, 175.02581400343024 71.17244627131153 M369.64795566798836 232.9762468973776 C296.2656837137888 172.95543058651836, 223.10576986148993 111.29568406049218, 175.07744042369214 68.88501917928146 M369.3155025234904 224.37015708360548 C319.2993334540192 179.75588006306202, 270.01560552194184 137.322510689344, 187.40562412696977 68.16640554037777 M371.1092920448216 221.94085020794097 C302.5553818021041 165.9009443412838, 233.40933439379563 107.69581751962873, 187.61162040132112 70.9845863598392 M369.27721967967267 212.85095370081382 C326.68033768019853 174.61290531216673, 279.27267323599244 133.1646363979818, 201.40606287921753 70.98322665472972 M371.27289619352007 213.95994708649837 C318.5909497481302 165.53780801610773, 266.47194206142797 121.99998394854536, 200.37177403654107 70.66259410905094 M371.4772550397714 200.29663531108895 C319.7139429869392 160.19218159205863, 267.20413844257195 116.30068582518444, 211.70368147941764 68.12995291500596 M371.1542809129598 202.18156497845231 C330.19353414290975 169.09381691405983, 292.17641055743707 137.4530237672828, 213.307224603503 69.56019426074239 M369.75887689245457 189.26631982168934 C336.3413807308594 162.11987912660197, 303.51499517607544 135.70441355387163, 223.38130494310664 68.19590944986554 M371.2271988577913 191.6972305258695 C338.298311704562 165.62256260862978, 305.93583646788727 137.9980663514131, 223.57670864354208 69.2436914893358 M367.6135823772748 178.6924338441415 C341.0510639316564 156.14874407109005, 315.38903904671645 133.40532350023327, 238.7559746594771 72.42611153578824 M370.32484242709205 180.20369960555067 C326.2539059090862 146.3949547906344, 283.1918938425722 111.5454782549939, 238.75863304975394 70.31187256663318 M372.8902970318388 171.47647361229468 C336.81872134159397 143.8326494757814, 306.5114106453098 118.21466792037721, 251.86227383346085 70.21184894081837 M369.5377124866166 171.78870868362293 C332.14751295492 138.12901489838657, 290.7175003620698 104.36688988910772, 251.339003026726 69.18700841693034 M368.15602180926084 160.94545065429702 C344.11337669693586 140.79572174386254, 322.51630080791165 117.19047650438273, 262.3031521090529 71.21674991970634 M371.53335706886344 159.98460069880247 C329.3000849095534 124.81424602343428, 291.82436648077055 92.02338152860015, 262.3734661749912 69.90835506481373 M368.4395179515377 150.9833350585415 C349.347186179392 131.71308569490222, 325.7621855608604 112.33974262866371, 275.5241172220736 70.955346427811 M370.4300670463233 150.89080156790072 C349.3034094543164 131.90108857019007, 328.7865354209605 113.77654404249651, 276.2667860084318 71.15911436613194 M370.19058418172597 141.00617707934708 C339.8461529387385 111.54068905691864, 310.4083428299797 86.05313111551598, 289.3772673873458 67.29749910893547 M370.9749340276116 139.35660399604797 C338.47161046353636 115.69618539069388, 308.4937477810803 87.68333881206708, 288.2277167528419 69.97181734878092 M370.47844556761373 127.65942351449107 C354.19392992969097 112.87200288379694, 333.82932380205256 101.35073531690404, 302.3993701009948 69.23846044817198 M369.53919985837825 128.3130460904233 C346.1939189148017 108.4550483055924, 320.67851501429595 84.81835549137128, 299.2954314046867 70.00936137825539 M371.55288121439156 119.87733825474244 C350.85677055192457 103.03748563435188, 331.0431686158574 86.34601931749381, 311.5609887337502 72.30787026212244 M371.4211577960294 118.43888828958016 C349.31357823228245 101.43743685566328, 326.38764105608027 81.65854342230787, 312.43503725372295 68.93862174494222 M369.0341399408146 108.24544864436815 C357.333596517039 95.82039401803105, 345.62031699457214 87.15469333876597, 325.9940499114109 71.39718438645524 M370.2361312982304 106.96486211331752 C354.21639528142236 94.33132921159914, 335.58242099738123 80.20154547430535, 324.68572774913116 70.90344572786394 M372.27485999451466 98.93715773014209 C357.64581467676817 90.07629468414373, 349.2134653978392 77.4614904193245, 337.50082900674636 69.53672763034253 M372.0315044630452 98.53143118417746 C357.7747463739819 89.27433962542047, 346.1766878500328 78.86461660854418, 337.05149890876316 69.02076446010807 M370.5197977933914 89.74949513989638 C366.15523873909217 84.62209420384623, 356.90695739327685 80.06760607736769, 350.5172542743755 69.95297781133921 M371.1067229566417 86.12815455839574 C364.2495377854626 80.64769613647472, 356.8912234045132 77.62190092836015, 348.824401961522 69.20829963938124 M369.87856069040475 78.02152527996714 C367.39413247533673 73.98425976604697, 365.31585220265436 72.15648944583982, 362.50778491652017 68.92907221123706 M369.7869814826593 77.18494862175565 C367.211426363139 74.27935572192393, 365.5247012227699 72.20729588964416, 361.7999112348395 70.23932934858429" stroke="#e8b4bc" stroke-width="1.15" fill="none"></path><path d="M39.95848478549651 70.01566482706242 C119.9400996760945 67.81917872002663, 200.91460351360237 68.78864650035604, 370.8171968087941 70.70364538518 M40.01591718724417 70.30723873636181 C127.14252165265361 67.49364760748185, 214.92777609810958 68.91245337449097, 369.41373502977507 70.1918887113828 M369.0022870897792 69.40642852996066 C366.7466999520194 136.88494118365983, 369.32214105820486 206.05913403484024, 370.2329567627395 278.6656589479085 M369.35976093174753 69.01513490145419 C372.3259044995437 124.56085867577265, 371.4725850868942 180.2903223544068, 370.31993007557935 279.73370020268743 M371.5668362804852 280.9321743306069 C262.96302686466987 277.50294582295305, 156.7198044232619 276.02003985301855, 40.48750836641123 279.4596516259074 M369.44616072551963 279.184404803305 C292.7463624035367 279.1558984024716, 215.8826955586831 278.77807261526823, 39.68812623004354 279.47132539918425 M39.120129867899166 280.53977146469606 C37.43773581267974 207.59180684184665, 38.86028620829531 132.6896165230149, 41.53007200706586 69.78732050553793 M41.01078949828386 279.14835685057596 C38.48465981157293 195.2959657330181, 39.9887910512484 111.90838522535348, 40.032376761737034 69.18099939053873" stroke="#1d1f22" stroke-width="1.7" fill="none"></path></g><text x="205" y="105" fill="#1d1f22" font-family="Architects Daughter, 'Segoe Print', 'Comic Sans MS', cursive" font-size="20" font-weight="700" text-anchor="middle">cache-agnostic</text><text x="205" y="140" fill="#1d1f22" font-family="Architects Daughter, 'Segoe Print', 'Comic Sans MS', cursive" font-size="17" font-weight="700" text-anchor="middle"><tspan x="205" dy="0">R1 matches A (900)</tspan><tspan x="205" dy="22">R2 matches B (40)</tspan><tspan x="205" dy="22">R3 matches A (880)</tspan><tspan x="205" dy="22">R4 matches C (120)</tspan><tspan x="205" dy="22">R5 matches A (850)</tspan><tspan x="205" dy="22"></tspan><tspan x="205" dy="22">A may be evicted</tspan></text><g><path d="M409.9549930573453 279.962234691018 C409.9549930573453 279.962234691018, 409.9549930573453 279.962234691018, 409.9549930573453 279.962234691018 M409.9549930573453 279.962234691018 C409.9549930573453 279.962234691018, 409.9549930573453 279.962234691018, 409.9549930573453 279.962234691018 M421.89168876757094 280.35918281303697 C418.16945342541004 276.90860314251495, 412.6969224746081 273.06810737684424, 410.07065975528724 267.39279236508463 M423.33053468222107 280.97282716641956 C418.58526930555695 276.46744947127155, 413.58931267275153 273.6152069582406, 408.7210525039551 270.09315005056527 M432.3312973452048 278.76637499701843 C427.1665013940919 273.33584834064715, 418.8793849402239 268.42207931385786, 411.84973890128384 261.89234399098564 M434.8855333028257 280.6378568121698 C426.68107160584196 272.1638691471616, 417.19003772063803 265.6658734270774, 410.91771474718246 260.3437583653574 M445.71005448311644 280.57143017874836 C434.76565466153613 272.4834956843986, 423.72801607306104 260.11752748311625, 411.28591223094327 249.61002213576415 M446.83954581979793 281.0937242578476 C433.82884652931784 268.21822576065495, 421.7335077106885 257.9908939779128, 411.2018984786052 247.7309508864763 M457.0606862880304 281.34515652087447 C440.4957993735281 262.56585323421285, 421.72841016377936 247.5821243731018, 408.92317575806896 239.96331369090498 M459.72318044931296 278.9666032107332 C440.25255959204776 263.40514341489956, 421.5197519785897 246.84438053349763, 409.8381428729402 237.11126995776075 M473.70674845682703 277.6005739398721 C451.43238060626584 258.4102675503883, 425.7419008816484 239.8341412867482, 408.4386287863534 229.7365129100294 M471.1899141025192 280.55232372187055 C454.9425763187986 264.8636388442978, 439.2092027157851 250.82426386167253, 408.9937231857313 227.6234745136133 M483.94519106829506 278.59089724555264 C470.26475012418865 264.9587066800415, 453.46495197457693 255.62873447132512, 408.9258125341661 217.1959169445529 M483.3289468916562 280.0218867233501 C461.7384833608024 262.9058554808171, 440.3468899398614 244.718016826616, 409.6523398106487 218.23618986992284 M495.4732641624424 278.58886286433074 C463.7029391244233 251.70810447484706, 430.8667016383028 226.7235602101199, 409.9187135785968 205.42734772447773 M498.1799610501309 281.17534074790404 C469.09345916008147 256.4284239378689, 443.1794002508116 234.4483176711293, 409.48499018993573 206.12643486406967 M506.7827989651258 281.7582759034189 C489.05420255281786 260.5454669165662, 467.62277397449753 241.3992097916253, 408.9894363655668 197.75973031750152 M509.408062978492 279.9320115876341 C487.26642198921917 260.41613123844655, 464.46197551738425 240.61684766960732, 409.32605567823197 194.98065818716427 M523.4377244582479 280.85806569925774 C493.928748679421 254.55748421712383, 462.87995446090656 229.14558982011079, 407.9712432349053 188.12835898351585 M522.6551856583038 279.2832217959608 C493.7311914997087 259.1104175622893, 467.0420836974971 235.9231800519529, 411.21275204462546 186.41303516598987 M536.5243602797809 278.87400675241145 C505.4715002821171 257.45251850695513, 474.2595981520336 232.7416252335585, 411.78970323663526 177.44931383897 M533.4996402928205 279.54866941552535 C502.0931885465518 250.70510819424294, 470.79076787933536 224.1714496691787, 410.211117723525 175.56368911626922 M548.627431633438 279.30281758654183 C507.18223934236755 247.88007558225283, 469.61397423782415 219.43221072698924, 409.289321821642 165.52454416663772 M547.2896010383062 280.48027371419 C513.4741958856163 251.7057832094287, 480.30097983130014 223.01146714602316, 409.7445169076914 165.73010081468095 M561.1412231198594 281.6640431051875 C528.2977144312855 252.0668404293161, 498.8989275450518 230.22600778564558, 409.3683151489436 154.1943745152051 M558.9913984228069 279.7674579544122 C499.8531047342386 227.8086731780186, 441.73930435797485 179.34835430610931, 409.76846659445255 155.51032543300278 M573.3829088116265 279.6240117629614 C532.5048477453773 247.91914850075165, 495.19427280242223 215.05959562312492, 409.9232471625157 145.96529151084061 M571.4331161470913 280.39263529453297 C516.5935882692929 232.40809935063675, 459.7100335736338 185.31991099154197, 410.8115883367339 143.36789353753707 M583.5742583675484 281.85132878667264 C546.3127957450143 248.73205662133904, 509.8228861054934 220.20858289313813, 407.81167437879765 135.5346240839459 M584.3335097682999 281.3733537176524 C549.9182924898727 249.25737828020038, 513.7443733660585 219.8723936316178, 410.29123278358543 133.06688843050495 M596.6337370512375 281.8001288748981 C556.7271087796544 248.42465619402543, 519.5295605643206 215.63556838653722, 407.5792597959212 125.25127790721442 M595.9038361033873 278.92796300566306 C551.7897627836767 241.42022843697572, 507.0933849370178 204.87930806284305, 408.9357090855066 122.4931384534957 M607.8935920154724 281.09201288584785 C551.0871893077524 236.0303579229615, 498.23031398921404 187.22030541932972, 409.5397088720491 114.57230155583107 M609.9995977394595 281.0642334370709 C561.0047742321726 236.4415966754576, 511.19326501326435 195.95076911912548, 410.43785070883575 113.13647029395393 M622.805874287978 278.9648642349262 C544.5050226690661 217.84808536840677, 469.93213819874785 152.9174703834895, 411.4555362046026 100.51445702635266 M621.5086990286011 280.6052660523037 C556.0085429685768 222.45406170310005, 489.19742972237395 167.19534396043238, 410.77676325802395 102.9059276909017 M633.942966824337 279.9088676751199 C565.2370014933026 220.2595774135117, 496.64484264761603 159.8584176050854, 411.4813298894148 93.26318722546517 M633.6650991560938 281.17209664000245 C566.9450091884829 227.29524270110778, 502.11984729547794 172.7262664370994, 409.90109997117474 91.27349942487058 M647.9542307852631 278.8428043759085 C575.2051974529431 219.87872332331008, 502.90435958551535 160.58886810671902, 412.21961090885355 81.52664892395215 M646.5973865605673 279.9780495247648 C556.2953729173128 204.26987210517785, 466.95328882392033 129.09627394090856, 410.5204591119733 81.77047351151015 M657.4743471502176 279.37882324433843 C597.3655333204352 228.60442571980428, 534.6935589450826 176.84900956093384, 408.568274059419 70.49311393830482 M659.7288862925102 280.641602871237 C603.7384741360178 235.34326394905736, 550.1649336163587 190.07850850794253, 409.8952738413232 70.39763332881995 M669.9515024871251 279.5280553318539 C590.9442164129081 212.8683886292437, 509.8123118488829 143.44075898529601, 419.8831419483932 69.23452840529959 M670.6265727716715 279.3575238846151 C581.5442018478697 202.06727626664875, 491.5462577384612 126.03900426110424, 420.13913524245396 69.16030153321275 M685.3681532345241 280.31562360719533 C626.6615155829248 230.67876472619912, 564.6654499511855 181.24353661543083, 434.1060834810932 70.02550871455992 M684.5794643043516 280.54582290249414 C589.9746904369141 202.33860665013276, 499.37968091646644 124.33243064720172, 433.66533269980965 69.92903057469874 M695.1769737458733 279.53429876222623 C610.4294107132891 208.5667334480262, 525.2085461526588 138.23250360315097, 444.9131025612593 70.77856099831261 M696.3169171999043 280.39118545838045 C596.8806937868544 198.78825847049447, 498.9378190668056 115.98673917656505, 445.8428901760969 69.8798345817666 M708.0356554958596 281.19861007008126 C642.2684109635089 225.0592844073013, 575.5537466220142 168.5262776243064, 456.86698155242277 71.60534850231147 M708.600419210891 279.43720422649693 C629.3082433226413 211.03346712716373, 548.1807346150254 142.60503533129568, 458.72701889679394 69.80847448613555 M720.2781734496219 278.69020160681384 C633.7835026711557 204.50973486597468, 545.5906289993816 128.2946165304566, 472.7265026907335 69.6445162608625 M721.3486793460597 280.26955887767326 C664.002704869251 232.52604247940837, 604.0688979970989 182.71396516527037, 470.5241228150727 70.44306792463398 M733.2050306874968 279.5751238746621 C659.5408909928375 214.5051248998707, 583.4269689215629 153.85205953314815, 482.27903605045424 70.13611715681226 M732.9725440138909 280.9198652524781 C670.397353634996 224.17177856081236, 606.1806331042774 170.08794702002893, 482.7627655038887 69.20073313686214 M740.0659331169699 274.1196237514464 C652.1405883600012 201.56890204856907, 566.0033021601456 128.09380878070297, 497.4069659346798 69.29160133265 M740.7864606300046 274.7929207181809 C658.8065177195626 203.04157956367595, 574.1957068240343 132.30018792118446, 496.33536247996267 70.98730217926577 M741.6871853592726 264.20210326498204 C649.8018479930035 193.3274167949485, 560.4515117099855 118.12258575283907, 507.4636420378576 70.64970617172338 M740.4791444417319 264.42869862776314 C686.2101281518657 222.72267683718468, 632.9053139610683 176.68896064359333, 508.60271247887135 69.41433539854009 M740.5049711858004 255.4893968813212 C672.2845837757174 199.2300490102092, 602.4827204872267 138.76614508631636, 520.3397676053028 69.57482475414916 M741.2541184797532 253.6516407925293 C658.249417980459 184.82226111282571, 574.8753131545162 115.41363596904596, 520.7341721170399 70.41534223660236 M739.5763956393824 242.63278864658838 C696.6546106321143 206.64484018878355, 648.5022554429792 171.70538782416708, 532.1839170396482 68.39722259624602 M740.2811485770634 243.45138378700992 C659.1688159097862 177.3895751531808, 578.6127337587147 110.43159305377759, 532.0443840799917 70.0232845115099 M742.0734049500452 234.29408655499697 C696.3747445632279 197.4924569287869, 649.3859972645656 155.83683644615834, 546.9087222323567 70.25507383899341 M739.4707545117966 233.2176406761401 C700.7131368744504 199.2991908755483, 661.0889675829939 166.35980826910998, 544.6705406867839 70.47561421737298 M739.8331882142489 221.966096936692 C682.1586973111869 174.57166492019718, 622.7708595414488 124.20724323627677, 555.7726332100287 69.22010187617158 M740.5161909395603 223.45192809800508 C699.7214088026586 187.84849124620294, 658.4609435683428 152.60821738562765, 557.0689701982635 69.90439221408236 M738.9364761334703 213.58661480422526 C673.4368902903631 156.9281062364005, 603.6285083092785 100.17457762087197, 570.6383545889267 71.78805044289773 M741.2414489778195 213.31879772200247 C696.2953970224238 177.88196603955734, 652.4300446434224 140.01528821683058, 569.6116010907931 70.910504681986 M738.9043422997506 202.26682985983274 C696.6275208467207 166.23602219113977, 650.5835431922525 127.03432340462518, 582.5637357479209 67.71370049366124 M740.6355589505444 203.12829748910522 C699.5609593272166 167.00193207926387, 657.8223821731907 131.13112609021064, 583.1734701034563 70.63119601411522 M742.9087893606167 194.19686424109915 C700.1592356817731 162.22192237152296, 659.4899230744062 127.66209055391067, 595.708735557291 70.97091540222895 M740.2557720880728 193.33917454016495 C698.6448580352977 157.1782252628824, 654.2805742781638 119.63343196722808, 596.3226432085418 70.45431541922311 M738.9962818017395 183.150504034307 C697.0246058698035 146.76277244108203, 654.9898558581514 109.52112020803052, 606.2895461363009 67.19826871221122 M740.083338008264 180.17669619039805 C708.8336629970973 153.2037893467635, 677.852814267323 126.98204879058659, 607.7227714751973 70.10422992678373 M739.3797585812047 172.39213213387617 C705.9112422556722 142.60553220801467, 672.7107283848061 118.87647869344477, 622.2683476120702 68.10690187073658 M740.578746015867 171.0392325647335 C692.4635883330732 131.02689148395402, 646.7226096634492 91.90600639027146, 618.9091074035646 70.21878727455645 M740.3650873555497 162.5272971825848 C707.4441536921676 135.18640106254546, 670.3827235278227 103.74798937551704, 631.3255410454094 67.73789158671455 M739.6892146951787 161.13217523212234 C705.4387993801859 132.4219183637445, 670.4506588873953 102.55121658548912, 630.974090038691 69.05885253918417 M738.5405785857138 148.0944771786741 C707.3574790243928 123.70943033969483, 680.6546149163678 96.94983816667074, 645.9020818855886 70.13828161422698 M741.1924209742059 149.92658491076045 C720.5294666871828 131.26251918848706, 697.5588833904366 113.8209464249932, 644.4521737383811 69.24560353306838 M739.8581781576905 140.3122549350642 C721.2990637810246 125.29264741211426, 703.0056945957322 105.38659561884292, 657.7932565544155 70.63848432320363 M739.8171174286593 139.78642210636198 C714.0366571690819 119.65800292904633, 687.192644738535 97.00365617219931, 657.7453408096454 69.32287475513773 M741.834722333342 131.1394827226825 C716.7225084018957 113.64602624056829, 698.5970125183592 94.04367643064711, 667.6346531136169 70.61722042218835 M741.4580180770503 129.54658389636847 C722.681124317065 116.36034802951954, 707.1948987003082 101.2555152778318, 669.3184554600716 69.7778571047904 M740.1695819853431 116.6877912154941 C728.9026227673246 104.79170465242562, 711.609526569973 92.56686016697691, 684.3509235198316 69.88878070835118 M740.2278318994521 119.80100150725562 C723.4145054744669 104.11722349517773, 704.2708141893108 88.59849330279192, 682.935200596001 70.65756231328774 M741.0553842626223 109.24855545507873 C725.7439452310851 95.08308946792995, 712.2229672673687 80.4967780260663, 695.9898481671677 69.47975846770994 M740.5240065259546 108.52785135530465 C722.1871880434967 92.89425591159787, 704.2127043771103 77.9449999654278, 693.8855584560605 70.06594604995274 M738.3838787657909 96.7329157916339 C733.49227207001 92.18046348234223, 723.8619980741408 83.34633223090262, 707.3946965186743 71.52800385296854 M739.3927440306398 98.60058967763241 C729.1534417076374 88.20946042220709, 714.8018280611616 77.56025941138053, 706.335424005135 69.70752439768846 M740.9108310025838 85.72475875335479 C738.5454502590279 85.10620025414518, 730.8215458182798 79.9820202408146, 721.9827809126185 71.80119002844393 M741.0710960013133 88.03380466434903 C733.4295512103848 82.06453506256896, 727.8416768450351 75.13241339553872, 719.2935632296609 70.25264518377709 M740.7142897719003 75.82286493895072 C738.7635684519389 75.46700763593577, 736.0834011212823 72.11615679097201, 731.4283623215312 69.90284885917418 M741.379110653778 76.84184606125778 C737.9517913288082 74.72145308004885, 734.7172203209907 71.97884955774094, 732.8032453102427 70.1307242309663" stroke="#a8d4b8" stroke-width="1.15" fill="none"></path><path d="M409.9216803325814 70.60948521729355 C537.2254865806792 71.9959429200644, 661.2367140076311 71.73466790466942, 738.9851205129429 70.64215106809715 M409.86577610095185 70.06903833531973 C531.3214607946201 68.61040661996127, 652.6548276062746 68.86073661821223, 739.3799105431362 69.82901348281946 M738.1192358177482 69.39820635585617 C739.7934672170338 118.96002894865465, 742.6728494169791 169.2788030929826, 740.088091625144 282.24328864959017 M740.4011895247697 69.04945716558947 C743.2420071804219 133.8582780859969, 742.143832031928 198.17669433056236, 741.0420093462122 279.1908185273643 M738.7211164669407 280.13947979214987 C651.2618302676356 279.8375398553798, 564.4718415131524 278.01867389418646, 409.39924640382685 278.93585998344753 M739.7058077279124 279.50864283549026 C670.69526171614 280.00639014358813, 599.8380206233568 279.2883067726497, 410.5952413285166 279.7470103035053 M408.57347923791696 279.9252706327988 C411.33095297664664 232.07674695961467, 411.08676115177525 178.52672587029053, 407.7818244493868 67.76404736211823 M410.8136940635239 279.4380162895529 C408.94444935253705 211.02333182439742, 408.30666512312985 139.25744488718777, 409.3342861829017 70.01925571171574" stroke="#1d1f22" stroke-width="1.7" fill="none"></path></g><text x="575" y="105" fill="#1d1f22" font-family="Architects Daughter, 'Segoe Print', 'Comic Sans MS', cursive" font-size="20" font-weight="700" text-anchor="middle">cache-aware</text><text x="575" y="140" fill="#1d1f22" font-family="Architects Daughter, 'Segoe Print', 'Comic Sans MS', cursive" font-size="17" font-weight="700" text-anchor="middle"><tspan x="575" dy="0">R1 + R3 + R5 (all A)</tspan><tspan x="575" dy="22">batched together</tspan><tspan x="575" dy="22">A stays resident</tspan><tspan x="575" dy="22">then R4 (C), R2 (B)</tspan><tspan x="575" dy="22"></tspan><tspan x="575" dy="22">prefix reuse sticks</tspan></text></svg>